<svg xmlns="http://www.w3.org/2000/svg" width="50.048" height="50.107" viewBox="0 0 50.048 50.107"><path d="M45.193,333.041c-2.367,0-4.735.019-7.1,0a5.348,5.348,0,0,1-5.366-4.669,2.244,2.244,0,0,1,.588-2.061,1.231,1.231,0,0,0,.241-.7,13.85,13.85,0,0,0,.136-2.221c-.069-1.085-.261-2.163-.405-3.243a.312.312,0,0,0-.08-.146,2.057,2.057,0,0,1,.038-2.717,11.483,11.483,0,0,1,7.451-5.306,20.628,20.628,0,0,1,9.317.078,11.461,11.461,0,0,1,7.293,5.517,1.938,1.938,0,0,1-.08,2.388,1.387,1.387,0,0,0-.169.625c-.119.8-.226,1.611-.336,2.417a2.018,2.018,0,0,0-.045.382c.043.741.077,1.484.156,2.221a1.365,1.365,0,0,0,.277.745,2.2,2.2,0,0,1,.574,1.854,5.345,5.345,0,0,1-5.329,4.835C49.966,333.066,47.579,333.04,45.193,333.041ZM34.508,318.677H55.875c-.162-.3-.256-.522-.387-.716a9.793,9.793,0,0,0-7.176-4.464,29.528,29.528,0,0,0-5.47-.1,10.04,10.04,0,0,0-7.95,4.567C34.76,318.159,34.667,318.378,34.508,318.677Zm10.683,9q-4.976,0-9.952,0c-.783,0-.875.128-.687.893a3.5,3.5,0,0,0,3.316,2.691q7.324.042,14.649,0a3.5,3.5,0,0,0,3.3-2.638c.216-.823.124-.947-.73-.948Q50.139,327.671,45.19,327.674Zm.057-3.581H41.611c-1.846,0-3.692-.006-5.538.01-.222,0-.619.088-.636.185a3.587,3.587,0,0,0-.016,1.369c.031.138.532.238.819.239q7.551.021,15.1.01c1.007,0,2.014.007,3.021-.008.194,0,.542-.065.553-.14a5.1,5.1,0,0,0,.047-1.42c-.015-.112-.463-.232-.712-.234C51.251,324.088,48.249,324.094,45.247,324.093Zm3-3.53c.4,1.049,1.218,1.773,1.909,1.751a2.471,2.471,0,0,0,1.8-1.751Zm-6.022.016H38.313c.558.78.894,1.671,1.888,1.716C41.285,322.346,41.619,321.382,42.226,320.579Zm1.008,1.676h3.91c-.584-.784-.912-1.718-1.957-1.714S43.813,321.469,43.233,322.255Zm-6.072.052.083-.163c-.265-.351-.511-.719-.8-1.048-.312-.352-.737-.774-1.174-.467-.216.151-.155.771-.121,1.171a.668.668,0,0,0,.416.484A13.662,13.662,0,0,0,37.161,322.307Zm15.922-.213.143.232h.934c1,0,1.139-.14,1.165-1.15.016-.616-.337-.874-.832-.507A12.472,12.472,0,0,0,53.083,322.093Z" transform="translate(-20.171 -282.943)" fill="#0b77e3"/><path d="M-65.819,76.038c-2.722,0-5.444.011-8.166-.009-.529,0-.729.143-.69.7.221,3.122.413,6.247.62,9.37q.308,4.657.626,9.314c.115,1.71.235,3.421.339,5.132.026.43.234.582.644.578,1.063-.01,2.125-.005,3.188,0,.685,0,.739.061.748.732,0,.168,0,.336,0,.5,0,.34-.15.524-.5.524-1.585,0-3.17.013-4.754-.01-.623-.009-.931-.348-.978-1q-.234-3.29-.452-6.581-.377-5.6-.75-11.21-.242-3.625-.481-7.251c-.048-.743-.084-.785-.822-.794a9.876,9.876,0,0,1-1.117-.027.856.856,0,0,1-.6-1.446,8.1,8.1,0,0,1,.734-.767,5.605,5.605,0,0,0,1.685-3.735c.062-.868.351-1.155,1.229-1.159,2.014-.008,4.027,0,6.041-.006.747,0,.789-.043.789-.8q0-5.145,0-10.289c0-1.186.255-1.437,1.449-1.44.895,0,1.79-.007,2.685,0s1.208.324,1.21,1.227q.01,5.173,0,10.345c0,.95,0,.952.974.953,1.92,0,3.841,0,5.761,0,1,0,1.257.256,1.329,1.232a5.561,5.561,0,0,0,1.653,3.634,3.7,3.7,0,0,1,.688.727,1.286,1.286,0,0,1,.2.948,1.407,1.407,0,0,1-.856.565,3.572,3.572,0,0,1-1.112.027c-.469-.024-.668.169-.694.645-.1,1.786-.226,3.57-.343,5.355,0,.074-.008.149-.014.223a.973.973,0,0,1-1.536.864.687.687,0,0,1-.226-.55c.084-1.619.207-3.235.3-4.854.118-2.077.273-1.654-1.48-1.674C-60.934,76.017-63.377,76.038-65.819,76.038Zm10.212-1.826c-.4-1.137-.763-2.2-1.177-3.251-.06-.151-.384-.278-.587-.279-5.626-.015-11.251-.01-16.877-.016-.4,0-.565.162-.7.548-.289.859-.662,1.689-1,2.531-.053.131-.108.261-.193.468Zm-9.3-10.679q0-2.125,0-4.249c0-1.2-.015-1.2-1.228-1.15-.438.017-.593.2-.585.618.013.671,0,1.342,0,2.013q0,3.634,0,7.269c0,.844.027.865.89.866.9,0,.919-.018.921-.894Q-64.9,65.77-64.906,63.533Z" transform="translate(79.196 -56.368)" fill="#0b77e3"/><path d="M196.033,227.966c-.518.3-.895.489-1.248.719a6.967,6.967,0,0,1-3.979,1.108c-1.939-.022-3.879,0-5.818-.005-1.1,0-1.128-.024-1.129-.869,0-.876.025-.9,1.157-.9,2.014,0,4.028-.02,6.042.007a5.214,5.214,0,0,0,3.125-1.048.845.845,0,0,0,.314-.595c.021-2.554.011-5.108.017-7.662,0-.4-.174-.554-.572-.573-1.215-.058-1.239-.047-1.239,1.138q0,3.076,0,6.153c0,.732-.048.767-.883.767s-.878-.035-.881-.768c-.005-1.305-.016-2.61,0-3.915.008-.5-.178-.732-.687-.687a3.227,3.227,0,0,1-.5,0c-.454-.031-.637.173-.63.627.015,1.025.006,2.051,0,3.076,0,.712-.059.762-.767.77-.986.011-1,0-1-.988,0-1.79,0-3.58,0-5.369,0-.755-.045-.793-.787-.8-.093,0-.187.009-.28,0-.554-.061-.758.176-.752.737.022,2.069.009,4.139.008,6.208,0,.186-.007.373,0,.559.008.37-.164.556-.539.547-.112,0-.224,0-.336,0-.863,0-.887-.021-.889-.873,0-.969-.017-1.939,0-2.908.011-.5-.165-.7-.679-.7-1.138,0-1.138-.025-1.139,1.133,0,1.175-.017,2.349.007,3.524.01.525-.176.776-.714.721-.074-.007-.149,0-.224,0-.793,0-.834-.039-.836-.815,0-1.585,0-3.17,0-4.754,0-.615-.015-1.231,0-1.846.012-.443-.154-.633-.617-.645-1.19-.031-1.2-.04-1.2,1.127,0,1.771,0,3.542,0,5.314,0,.683-.061.724-.869.725-.829,0-.892-.039-.894-.7q-.008-3.524,0-7.047c0-.855.331-1.168,1.2-1.177q1.482-.015,2.965,0c.835.01,1.148.328,1.173,1.152a4.276,4.276,0,0,0,.008.5c.048.318.05.859.2.9a3.578,3.578,0,0,0,1.367.049c.1-.009.221-.321.23-.5.03-.633,0-1.268.022-1.9.02-.761.342-1.09,1.105-1.1q1.566-.024,3.133,0c.757.012,1.07.345,1.1,1.109.006.149,0,.3,0,.447,0,1.087.415,1.4,1.472,1.082a.611.611,0,0,0,.317-.436c.05-.386.013-.782.032-1.172.034-.67.347-1.011,1.007-1.025q1.65-.035,3.3,0c.719.015,1.025.376,1.028,1.175.009,2.405,0,4.81.007,7.215,0,.236.027.473.044.744a2.032,2.032,0,0,0,.366-.039c.924-.293,1.438.133,1.339,1.112-.142,1.409-.278,2.819-.421,4.228q-.656,6.509-1.316,13.018c-.09.887-.366,1.145-1.249,1.148q-3.441.011-6.881,0c-.664,0-.726-.088-.727-.877s.062-.882.72-.884c1.846-.007,3.692,0,5.538,0,.892,0,.911,0,1-.875q.475-4.673.932-9.347c.133-1.335.274-2.67.4-4.006C196.056,228.722,196.033,228.432,196.033,227.966Z" transform="translate(-147.997 -198.483)" fill="#0b77e3"/></svg>