<svg xmlns="http://www.w3.org/2000/svg" width="14.668" height="17.714" viewBox="0 0 14.668 17.714">
  <g id="Group_9487" data-name="Group 9487" transform="translate(-204.443 -168.803)">
    <path id="Path_63870" data-name="Path 63870" d="M219,182.483l-.638-.941a6.966,6.966,0,0,1-1.167-3.877v-2.939a5.441,5.441,0,1,0-10.838,0v2.939a6.963,6.963,0,0,1-1.167,3.877l-.638.941a.632.632,0,0,0,.523.988h13.4a.632.632,0,0,0,.523-.988Z" transform="translate(0 0)" fill="#fff"/>
    <path id="Path_63871" data-name="Path 63871" d="M298.718,529.158a3.681,3.681,0,0,0,3.45-2.413h-6.9a3.681,3.681,0,0,0,3.449,2.413Z" transform="translate(-86.944 -342.641)" fill="#fff"/>
  </g>
</svg>
