<svg xmlns="http://www.w3.org/2000/svg" width="21.824" height="18.707" viewBox="0 0 21.824 18.707"><g transform="translate(-3261.643 -248.714)"><path d="M3282.689,253.39a.779.779,0,0,0,.779-.779v-1.559a2.338,2.338,0,0,0-2.339-2.338h-17.147a2.338,2.338,0,0,0-2.338,2.338v1.559a.779.779,0,0,0,.78.779Zm-.78-1.559v-.779a.78.78,0,0,0-.78-.78h-17.147a.779.779,0,0,0-.779.78v.779Z" transform="translate(-0.001)" fill="#0b77e3" fill-rule="evenodd"/><g transform="translate(3261.643 251.832)"><path d="M3454.69,514.972a.786.786,0,1,0,.787.786A.787.787,0,0,0,3454.69,514.972Z" transform="translate(-3443.778 -504.067)" fill="#0b77e3" fill-rule="evenodd"/><path d="M3282.688,307.917h-20.265a.779.779,0,0,0-.78.779v14.03a.779.779,0,0,0,.78.78h20.265a.78.78,0,0,0,.779-.78V308.7A.779.779,0,0,0,3282.688,307.917Zm-9.95,14.03h-.366a2.345,2.345,0,1,1,.366,0Zm7.506-1.058a.779.779,0,0,1-.654.643l-1.381.206a.568.568,0,0,1-.151.21H3276.4a.73.73,0,0,1,.064-.149,4.478,4.478,0,0,0,.4-.973.779.779,0,0,1,.635-.56l1.269-.189a6.123,6.123,0,0,0,0-.937l-1.269-.189a.779.779,0,0,1-.635-.56,4.473,4.473,0,0,0-.4-.973.78.78,0,0,1,.054-.845l.763-1.031a6.244,6.244,0,0,0-.662-.662l-1.031.763a.778.778,0,0,1-.845.054,4.471,4.471,0,0,0-.973-.4.779.779,0,0,1-.56-.636l-.189-1.268a6.125,6.125,0,0,0-.937,0l-.188,1.268a.781.781,0,0,1-.56.636,4.469,4.469,0,0,0-.973.4.779.779,0,0,1-.845-.054l-1.031-.763a6.263,6.263,0,0,0-.662.662l.763,1.031a.779.779,0,0,1,.054.845,4.472,4.472,0,0,0-.4.973.779.779,0,0,1-.636.56l-1.268.189a6.123,6.123,0,0,0,0,.937l1.268.189a.779.779,0,0,1,.636.56,4.478,4.478,0,0,0,.4.973.773.773,0,0,1,.064.149h-.3s-1.5-.182-1.508-.21l-1.381-.206a.78.78,0,0,1-.654-.643,7.818,7.818,0,0,1,0-2.56.78.78,0,0,1,.654-.643l1.381-.205q.07-.185.15-.364l-.831-1.122a.78.78,0,0,1-.008-.917,7.789,7.789,0,0,1,1.81-1.81.781.781,0,0,1,.918.008l1.122.831q.18-.081.364-.151h0l.205-1.381a.781.781,0,0,1,.643-.654,7.811,7.811,0,0,1,2.56,0,.78.78,0,0,1,.643.654l.205,1.381c.123.046.244.1.364.151l1.122-.831a.78.78,0,0,1,.917-.008,7.784,7.784,0,0,1,1.81,1.81.778.778,0,0,1-.008.917l-.831,1.122q.082.179.151.364l1.381.205a.779.779,0,0,1,.654.643A7.8,7.8,0,0,1,3280.244,320.888Z" transform="translate(-3261.643 -307.917)" fill="#0b77e3" fill-rule="evenodd"/></g></g></svg>