<svg id="Group_11800" data-name="Group 11800" xmlns="http://www.w3.org/2000/svg" width="131.486" height="30" viewBox="0 0 131.486 30">
  <text id="POS" transform="translate(80.486 24)" fill="#24282c" font-size="25" font-family="SFProDisplay-Bold, SF Pro Display" font-weight="700"><tspan x="0" y="0">POS</tspan></text>
  <g id="Group_11799" data-name="Group 11799" transform="translate(0 1.56)">
    <g id="Group_3594" data-name="Group 3594" transform="translate(0 0)">
      <g id="Group_3586" data-name="Group 3586">
        <g id="Group_3574" data-name="Group 3574" transform="translate(11.489)">
          <path id="Path_2030" data-name="Path 2030" d="M309.248,397.891l-1.06-12.667,3.382.422Z" transform="translate(-308.188 -385.224)"/>
        </g>
        <g id="Group_3575" data-name="Group 3575" transform="translate(12.878 5.538)">
          <path id="Path_2031" data-name="Path 2031" d="M317.885,431.922l7.389-8.022,1.267,1.478Z" transform="translate(-317.885 -423.9)"/>
        </g>
        <g id="Group_3576" data-name="Group 3576" transform="translate(13.313 12.082)">
          <path id="Path_2032" data-name="Path 2032" d="M333.786,469.607v2.372l-12.866-.145Z" transform="translate(-320.92 -469.607)"/>
        </g>
        <g id="Group_3577" data-name="Group 3577" transform="translate(13.934 14.827)">
          <path id="Path_2033" data-name="Path 2033" d="M325.258,488.774l10.767,2.322-.844,1.9Z" transform="translate(-325.258 -488.774)"/>
        </g>
        <g id="Group_3578" data-name="Group 3578" transform="translate(12.878 15.478)">
          <path id="Path_2034" data-name="Path 2034" d="M317.885,493.323l10.345,7.371-1.689,1.86Z" transform="translate(-317.885 -493.323)"/>
        </g>
        <g id="Group_3579" data-name="Group 3579" transform="translate(12.667 16.853)">
          <path id="Path_2035" data-name="Path 2035" d="M316.622,502.923l1.9,8.108-2.111-.211Z" transform="translate(-316.411 -502.923)"/>
        </g>
        <g id="Group_3580" data-name="Group 3580" transform="translate(7.6 17.149)">
          <path id="Path_2036" data-name="Path 2036" d="M285.036,504.993,282.5,515.76l-1.478-.633Z" transform="translate(-281.025 -504.993)"/>
        </g>
        <g id="Group_3581" data-name="Group 3581" transform="translate(3.589 15.478)">
          <path id="Path_2037" data-name="Path 2037" d="M260.791,493.323l-5.669,9.271-2.111-1.478Z" transform="translate(-253.011 -493.323)"/>
        </g>
        <g id="Group_3582" data-name="Group 3582" transform="translate(0 14.827)">
          <path id="Path_2038" data-name="Path 2038" d="M238.924,488.774,228.791,493l-.844-2.533Z" transform="translate(-227.946 -488.774)"/>
        </g>
        <g id="Group_3583" data-name="Group 3583" transform="translate(0.211 10.393)">
          <path id="Path_2039" data-name="Path 2039" d="M240.187,462.034l-10.767-2.111.844-2.111Z" transform="translate(-229.42 -457.811)"/>
        </g>
        <g id="Group_3584" data-name="Group 3584" transform="translate(0 5.538)">
          <path id="Path_2040" data-name="Path 2040" d="M238.713,432.556l-10.767-6.545,1.788-2.111Z" transform="translate(-227.946 -423.9)"/>
        </g>
        <g id="Group_3585" data-name="Group 3585" transform="translate(6.333 4.693)">
          <path id="Path_2041" data-name="Path 2041" d="M277.034,427.08l-4.856-8.656,2.533-.422Z" transform="translate(-272.178 -418.002)"/>
        </g>
      </g>
      <g id="Group_3593" data-name="Group 3593" transform="translate(30.558 2.749)">
        <g id="Group_3587" data-name="Group 3587">
          <path id="Path_2042" data-name="Path 2042" d="M446.121,410.742a5.832,5.832,0,0,1,1.451-3.294,4.223,4.223,0,0,1,3.028-1,6.719,6.719,0,0,1,1.355.136,6.031,6.031,0,0,1,1.287.42l-.25,1.769a5.731,5.731,0,0,0-1.247-.476,5.267,5.267,0,0,0-1.281-.159,2.195,2.195,0,0,0-1.633.607,3.2,3.2,0,0,0-.782,1.831l-.238,1.417H450l-.238,1.769h-2.2l-1.95,13.006h-1.9l1.928-13.006h-1.678l.261-1.769h1.69Z" transform="translate(-443.37 -406.155)"/>
          <path id="Path_2043" data-name="Path 2043" d="M443.851,425.322h-2.49l1.928-13.006H441.61l.346-2.348h1.7l.174-1.007a6.127,6.127,0,0,1,1.537-3.454,4.517,4.517,0,0,1,3.227-1.083,7.05,7.05,0,0,1,1.413.142,6.355,6.355,0,0,1,1.349.44l.2.09-.337,2.388-.363-.188a5.459,5.459,0,0,0-1.184-.453,5.006,5.006,0,0,0-1.211-.15,1.9,1.9,0,0,0-1.427.521,2.941,2.941,0,0,0-.7,1.67l-.182,1.085h2.177L448,412.316h-2.2Zm-1.819-.579h1.32l1.95-13.006h2.2l.16-1.19h-2.2l.295-1.755a3.484,3.484,0,0,1,.862-1.987,2.482,2.482,0,0,1,1.838-.692,5.581,5.581,0,0,1,1.352.167,5.93,5.93,0,0,1,.946.326l.163-1.159a5.746,5.746,0,0,0-1.027-.314,6.463,6.463,0,0,0-1.3-.13,3.967,3.967,0,0,0-2.828.924,5.59,5.59,0,0,0-1.366,3.134l-.257,1.488h-1.683l-.175,1.19h1.678Z" transform="translate(-441.361 -404.423)"/>
        </g>
        <g id="Group_3588" data-name="Group 3588" transform="translate(5.986 5.386)">
          <path id="Path_2044" data-name="Path 2044" d="M487.465,454.7h-1.95l1.565-10.478h1.95l-.283,1.973a6.613,6.613,0,0,1,1.383-1.667,2.2,2.2,0,0,1,1.361-.465,2.078,2.078,0,0,1,.414.045,3.4,3.4,0,0,1,.471.136l-.126,2.15c-.106-.023-.6-.308-.7-.319a2.335,2.335,0,0,0-.278-.017,2.262,2.262,0,0,0-1.576.652,6.516,6.516,0,0,0-1.349,2.07Z" transform="translate(-485.179 -443.772)"/>
          <path id="Path_2045" data-name="Path 2045" d="M485.7,453.254h-2.536l1.651-11.057h2.534l-.161,1.123a4.515,4.515,0,0,1,.752-.758,2.49,2.49,0,0,1,1.536-.524,2.376,2.376,0,0,1,.472.051,3.7,3.7,0,0,1,.512.148l.2.074-.159,2.7-.33-.071a2.009,2.009,0,0,1-.4-.179c-.088-.044-.231-.117-.284-.137a2.07,2.07,0,0,0-.224-.013,1.965,1.965,0,0,0-1.379.575,6.212,6.212,0,0,0-1.266,1.94Zm-1.864-.579H485.2l.854-5.713.017-.037a6.819,6.819,0,0,1,1.416-2.162,2.552,2.552,0,0,1,1.773-.729,2.612,2.612,0,0,1,.312.019,1.35,1.35,0,0,1,.4.163l.088-1.5q-.118-.035-.227-.057a1.8,1.8,0,0,0-.355-.04,1.9,1.9,0,0,0-1.186.406,6.384,6.384,0,0,0-1.315,1.593l-.72,1.123.426-2.962h-1.367Z" transform="translate(-483.168 -442.039)"/>
        </g>
        <g id="Group_3589" data-name="Group 3589" transform="translate(12.721 1.179)">
          <path id="Path_2046" data-name="Path 2046" d="M534.561,429.524h-2.018l1.531-10.477h2.018Zm-.136-13.732a1.1,1.1,0,0,1,1.111-1.111,1.036,1.036,0,0,1,.771.327,1.086,1.086,0,0,1,.317.785,1.067,1.067,0,0,1-.317.779,1.044,1.044,0,0,1-.771.321,1.081,1.081,0,0,1-.794-.315A1.062,1.062,0,0,1,534.425,415.792Z" transform="translate(-532.208 -414.391)"/>
          <path id="Path_2047" data-name="Path 2047" d="M532.807,428.081h-2.6l1.616-11.057h2.6Zm-1.934-.579h1.433l1.446-9.9h-1.433Zm2.659-12.053a1.365,1.365,0,0,1-1-.4,1.418,1.418,0,0,1,.006-1.986,1.362,1.362,0,0,1,.992-.4,1.32,1.32,0,0,1,.979.414,1.371,1.371,0,0,1,.4.986,1.353,1.353,0,0,1-.4.983A1.33,1.33,0,0,1,533.532,415.449Zm0-2.211a.81.81,0,0,0-.822.822.775.775,0,0,0,.232.579.8.8,0,0,0,.59.231.758.758,0,0,0,.565-.235.78.78,0,0,0,.234-.575.8.8,0,0,0-.236-.583A.751.751,0,0,0,533.532,413.238Z" transform="translate(-530.203 -412.659)"/>
        </g>
        <g id="Group_3590" data-name="Group 3590" transform="translate(17.256 0.159)">
          <path id="Path_2048" data-name="Path 2048" d="M572.036,423.44q-.975.1-1.61.142t-1.054.039a6.058,6.058,0,0,1-4.02-1.225,4.138,4.138,0,0,1-1.457-3.345,5.966,5.966,0,0,1,.7-2.835,6.686,6.686,0,0,1,2.007-2.279,6.175,6.175,0,0,1,2-.958,9.633,9.633,0,0,1,2.58-.312h.465l.737-5.114h2.019Zm-1.791-1.6,1.077-7.416q-.08,0-.244-.012t-.244-.011a5.008,5.008,0,0,0-3.51,1.225,4.059,4.059,0,0,0-1.344,3.141,3.016,3.016,0,0,0,3.175,3.186,5.675,5.675,0,0,0,.6-.028A3.6,3.6,0,0,0,570.245,421.841Z" transform="translate(-563.605 -407.264)"/>
          <path id="Path_2049" data-name="Path 2049" d="M567.639,422.178a6.362,6.362,0,0,1-4.206-1.293,4.432,4.432,0,0,1-1.56-3.567,6.278,6.278,0,0,1,.737-2.97,7,7,0,0,1,2.092-2.377,6.491,6.491,0,0,1,2.094-1,9.966,9.966,0,0,1,2.658-.322h.214l.737-5.114h2.605l-2.453,16.441-.223.023c-.649.068-1.195.116-1.622.143S567.924,422.178,567.639,422.178Zm1.814-10.954a9.385,9.385,0,0,0-2.5.3,5.909,5.909,0,0,0-1.908.913,6.429,6.429,0,0,0-1.922,2.181,5.7,5.7,0,0,0-.669,2.7,3.829,3.829,0,0,0,1.354,3.123,5.808,5.808,0,0,0,3.833,1.157c.273,0,.622-.013,1.037-.039.369-.023.831-.063,1.375-.118l2.287-15.331h-1.432l-.737,5.114Zm-2.03,9.287a3.3,3.3,0,0,1-3.464-3.476,4.355,4.355,0,0,1,1.438-3.355,5.31,5.31,0,0,1,3.7-1.3c.059,0,.142,0,.263.012s.192.011.224.011h.335l-1.153,7.939-.188.047a3.913,3.913,0,0,1-.533.092A5.979,5.979,0,0,1,567.424,420.511Zm1.678-7.552a4.75,4.75,0,0,0-3.314,1.149,3.749,3.749,0,0,0-1.249,2.927,2.728,2.728,0,0,0,2.885,2.9,5.454,5.454,0,0,0,.565-.026c.092-.01.181-.022.266-.038l1-6.9C569.188,412.961,569.136,412.959,569.1,412.959Z" transform="translate(-561.873 -405.531)"/>
        </g>
        <g id="Group_3591" data-name="Group 3591" transform="translate(27.151 5.545)">
          <path id="Path_2050" data-name="Path 2050" d="M641.1,455.647h-1.973l.193-1.3a4.3,4.3,0,0,1-1.293,1.14,3.047,3.047,0,0,1-1.474.368,3.194,3.194,0,0,1-2.534-1.191,4.469,4.469,0,0,1-1.015-3,6.45,6.45,0,0,1,.346-2.086,6.7,6.7,0,0,1,.992-1.882,6.014,6.014,0,0,1,2.37-1.928,8.8,8.8,0,0,1,3.493-.59h2.125a.27.27,0,0,1,.268.31Zm-1.486-3.232.794-5.522c-.061-.008-.129-.013-.2-.017s-.185-.006-.329-.006a4.671,4.671,0,0,0-3.4,1.281,4.391,4.391,0,0,0-1.315,3.288,3.252,3.252,0,0,0,.562,1.99,1.736,1.736,0,0,0,1.457.754,2.189,2.189,0,0,0,1.3-.442A4.294,4.294,0,0,0,639.613,452.416Z" transform="translate(-632.713 -444.88)"/>
          <path id="Path_2051" data-name="Path 2051" d="M634.82,454.409a3.486,3.486,0,0,1-2.755-1.292,4.769,4.769,0,0,1-1.084-3.193,6.777,6.777,0,0,1,.361-2.179,7.022,7.022,0,0,1,1.035-1.963,6.327,6.327,0,0,1,2.486-2.019,9.122,9.122,0,0,1,3.608-.614H640.6a.559.559,0,0,1,.554.642L639.617,454.2h-2.559l.107-.721a3.891,3.891,0,0,1-.733.521A3.348,3.348,0,0,1,634.82,454.409Zm3.651-10.681a8.563,8.563,0,0,0-3.376.565,5.755,5.755,0,0,0-2.256,1.838,6.444,6.444,0,0,0-.948,1.8,6.2,6.2,0,0,0-.331,1.993,4.207,4.207,0,0,0,.946,2.817,2.894,2.894,0,0,0,2.314,1.089,2.776,2.776,0,0,0,1.336-.333,4.037,4.037,0,0,0,1.2-1.065l.671-.846-.3,2.04h1.387l1.457-9.9Zm-3.027,9.015a2.02,2.02,0,0,1-1.69-.871,3.546,3.546,0,0,1-.618-2.163,4.689,4.689,0,0,1,1.4-3.5,4.97,4.97,0,0,1,3.6-1.364c.146,0,.261,0,.343.006s.159.011.225.019l.294.036-.844,5.872-.029.049a4.6,4.6,0,0,1-1.214,1.414A2.482,2.482,0,0,1,635.443,452.742Zm2.7-7.314a4.411,4.411,0,0,0-3.2,1.2,4.078,4.078,0,0,0-1.228,3.081,2.988,2.988,0,0,0,.5,1.817,1.449,1.449,0,0,0,1.225.637,1.889,1.889,0,0,0,1.134-.387,3.973,3.973,0,0,0,1.025-1.19l.741-5.155Z" transform="translate(-630.981 -443.148)"/>
        </g>
        <g id="Group_3592" data-name="Group 3592" transform="translate(36.722 5.545)">
          <path id="Path_2052" data-name="Path 2052" d="M703.126,460.92H701.04L703.875,455l-1.881-9.824a.006.006,0,0,1,.006-.007h1.966l1.327,6.883,3.3-6.883h2.154Z" transform="translate(-700.58 -444.88)"/>
          <path id="Path_2053" data-name="Path 2053" d="M700.556,459.477h-2.728l2.992-6.248-1.888-9.862.173-.217.143,0h2.2l1.206,6.256,3-6.256h2.8Zm-1.808-.579h1.445l7.34-15.171h-1.51l-3.6,7.51-1.448-7.51h-1.383l1.834,9.58Z" transform="translate(-697.829 -443.148)"/>
        </g>
      </g>
    </g>
  </g>
</svg>
