<svg xmlns="http://www.w3.org/2000/svg" width="20.274" height="20.638" viewBox="0 0 20.274 20.638">
  <g id="Group_10864" data-name="Group 10864" transform="translate(-260.191 -235.429)">
    <path id="Path_65546" data-name="Path 65546" d="M275.879,248.459v-7.622a4.4,4.4,0,0,0-4.392-4.408H265.6a4.4,4.4,0,0,0-4.407,4.393v8.8a4.4,4.4,0,0,0,4.4,4.4H268.9" fill="none" stroke="#0b77e3" stroke-miterlimit="10" stroke-width="2"/>
    <path id="Path_65547" data-name="Path 65547" d="M268.346,245.952h-2.97a.734.734,0,0,1-.735-.732h0a.733.733,0,0,1,.735-.731h2.97a.732.732,0,1,1,0,1.464h0Z" fill="#0b77e3"/>
    <path id="Path_65548" data-name="Path 65548" d="M271.447,242h-6.072a.733.733,0,0,1-.735-.73v0a.734.734,0,0,1,.735-.732h6.072a.732.732,0,0,1,.733.732h0a.731.731,0,0,1-.732.732h0Z" fill="#0b77e3"/>
    <path id="Path_65174" data-name="Path 65174" d="M279.937,248.618a1.346,1.346,0,0,0-1-.435,1.474,1.474,0,0,0-1.044.435l-4.091,3.915-.544-.547h0l-.992-.984a1.345,1.345,0,0,0-1-.436,1.475,1.475,0,0,0-1.043.436,1.439,1.439,0,0,0-.023,2.034l.023.023.027.027,2.557,2.559a1.669,1.669,0,0,0,1.05.422,1.559,1.559,0,0,0,1.05-.422l5.142-4.969a1.362,1.362,0,0,0,.036-1.925A1.337,1.337,0,0,0,279.937,248.618Z" fill="#0b77e3"/>
  </g>
</svg>
