<svg xmlns="http://www.w3.org/2000/svg" width="20.655" height="21.609" viewBox="0 0 20.655 21.609"><path d="M191.566,181.794a.772.772,0,1,1-.544-.224A.772.772,0,0,1,191.566,181.794Zm-5.456-4.368a.772.772,0,1,0-.544.224A.771.771,0,0,0,186.11,177.426Zm11.908,3.249a2.917,2.917,0,0,1,.525,2.261,2.956,2.956,0,0,1-1.791,1.544,2.917,2.917,0,0,0-.942.571,3.186,3.186,0,0,0-.262,1.08,2.275,2.275,0,0,1-3.234,2.377,3.373,3.373,0,0,0-1.127-.085,3.187,3.187,0,0,0-.772.7,2.364,2.364,0,0,1-4.183.054,1.432,1.432,0,0,0-1.937-.617,2.3,2.3,0,0,1-3.257-2.408,3.185,3.185,0,0,0-.262-1.08,2.92,2.92,0,0,0-.972-.571,2.955,2.955,0,0,1-1.79-1.543,2.917,2.917,0,0,1,.525-2.261,1.485,1.485,0,0,0,.062-2.153,2.917,2.917,0,0,1-.525-2.261,2.956,2.956,0,0,1,1.729-1.567,2.915,2.915,0,0,0,.942-.571,3.191,3.191,0,0,0,.263-1.08,2.3,2.3,0,0,1,3.264-2.377,1.432,1.432,0,0,0,1.937-.617,2.342,2.342,0,0,1,4.144-.031,1.373,1.373,0,0,0,1.9.617,2.337,2.337,0,0,1,3.3,2.408,3.186,3.186,0,0,0,.262,1.08,2.917,2.917,0,0,0,.972.571,2.956,2.956,0,0,1,1.79,1.544,2.917,2.917,0,0,1-.525,2.261,1.451,1.451,0,0,0-.031,2.153Zm-14.092-2.153a2.315,2.315,0,1,0-.681-1.64,2.314,2.314,0,0,0,.681,1.64Zm8.736-2.184a.775.775,0,1,0-1.1-1.1l-7.641,7.641h0a.775.775,0,1,0,1.1,1.1Zm0,4.36a2.315,2.315,0,1,0,.681,1.64,2.316,2.316,0,0,0-.681-1.64Z" transform="translate(-177.967 -168.806)" fill="#0b77e3"/></svg>