<svg xmlns="http://www.w3.org/2000/svg" width="19.366" height="21.07" viewBox="0 0 19.366 21.07">
  <g id="icon-storage-dimension-group" transform="translate(1 1.078)">
    <g id="Group_10862" data-name="Group 10862" transform="translate(-261.044 -405.06)">
      <path id="Path_65553" data-name="Path 65553" d="M268.424,405.492l-6.512,4.884h0a2.175,2.175,0,0,0-.868,1.737v9.768a2.171,2.171,0,0,0,2.171,2.171h13.024a2.171,2.171,0,0,0,2.171-2.171h0v-9.768a2.169,2.169,0,0,0-.868-1.737l-6.512-4.884a2.172,2.172,0,0,0-2.6,0Z" fill="none" stroke="#0b77e3" stroke-miterlimit="10" stroke-width="2"/>
      <path id="Path_65554" data-name="Path 65554" d="M267.427,421.512h-1.766a.883.883,0,0,1-.883-.883h0v-1.767a.883.883,0,0,1,.883-.883h1.766a.884.884,0,0,1,.883.883v1.767a.883.883,0,0,1-.883.883Z" fill="#0b77e3"/>
      <path id="Path_65555" data-name="Path 65555" d="M267.354,416.817h-1.766a.883.883,0,0,1-.883-.883h0v-1.766a.883.883,0,0,1,.883-.883h1.766a.883.883,0,0,1,.883.883h0v1.766A.883.883,0,0,1,267.354,416.817Z" fill="#0b77e3"/>
      <path id="Path_65556" data-name="Path 65556" d="M272.725,421.512h-1.767a.883.883,0,0,1-.88-.883v-1.767a.883.883,0,0,1,.883-.883h1.766a.884.884,0,0,1,.883.883v1.767a.883.883,0,0,1-.883.883h0Z" fill="#0b77e3"/>
    </g>
  </g>
</svg>
