<svg id="icon-delete" xmlns="http://www.w3.org/2000/svg" width="13.751" height="20.234" viewBox="0 0 13.751 20.234"><path id="Path_65656" data-name="Path 65656" d="M-1612.443-717.666c0-2.249,0-4.5-.006-6.747,0-.287.089-.358.366-.357q5.812.012,11.624,0c.282,0,.362.08.362.361q-.012,6.688-.006,13.377a1.33,1.33,0,0,1-1.411,1.406q-4.76,0-9.521,0a1.331,1.331,0,0,1-1.407-1.41Q-1612.445-714.351-1612.443-717.666Z" transform="translate(1613.149 729.859)" fill="#a0a4a7"/><path id="Path_65657" data-name="Path 65657" d="M-1617.58-786.351c-2.162,0-4.323,0-6.485.006-.284,0-.372-.082-.36-.363.021-.476,0-.954.006-1.431a.815.815,0,0,1,.824-.9c.058-.005.117,0,.175,0,2.453-.008,4.907-.021,7.36-.023,1.47,0,2.94.014,4.41.024.662,0,.968.311.969.963,0,.467-.013.935.005,1.4.01.259-.076.332-.332.331C-1613.2-786.354-1615.39-786.351-1617.58-786.351Z" transform="translate(1624.426 790.397)" fill="#a0a4a7"/><path id="Path_65658" data-name="Path 65658" d="M-1539.008-810.595c-.584,0-1.168,0-1.752,0-.245,0-.307-.079-.231-.318a1.3,1.3,0,0,1,1.229-.944c.516-.007,1.032-.009,1.548,0a1.32,1.32,0,0,1,1.192,1.031c.042.217-.087.225-.234.225Z" transform="translate(1545.895 811.86)" fill="#a0a4a7"/>
</svg>