<svg xmlns="http://www.w3.org/2000/svg" width="44.044" height="38.749" viewBox="0 0 44.044 38.749"><path d="M-3176.535-1242.062c2.011,2.094,2.164,2.648,1.244,4.424a9.481,9.481,0,0,1,.568.907,2.726,2.726,0,0,1,.129,2.025.516.516,0,0,0,.216.649,4.733,4.733,0,0,1,1.856,3.962,1.974,1.974,0,0,1-1.805,2.206c-.126.028-.253.054-.423.089-.038.632-.079,1.274-.115,1.917a3.155,3.155,0,0,1-2.832,3.338c-2.224.407-4.464.761-6.712,1-2.954.321-5.919.553-8.884.748a62.223,62.223,0,0,1-10.553-.176c-2.2-.229-4.393-.443-6.582-.716a11.466,11.466,0,0,1-2.089-.529,2.118,2.118,0,0,1-1.51-1.966c-.059-.589-.122-1.178-.154-1.768-.015-.278-.089-.438-.4-.428a1.588,1.588,0,0,1-.341-.056,1.768,1.768,0,0,1-1.583-2.28,18.766,18.766,0,0,1,.99-2.983,4.457,4.457,0,0,1,.921-1.13.482.482,0,0,0,.155-.569,4,4,0,0,1,.053-3.035.527.527,0,0,0-.083-.478,2,2,0,0,1-.489-2.778.947.947,0,0,0-.024-1.1,1.62,1.62,0,0,1-.208-.951,18.524,18.524,0,0,1,3.128-9.842,16.731,16.731,0,0,1,8.414-6.3,25.316,25.316,0,0,1,9.732-1.5,23.28,23.28,0,0,1,10.057,2.741,13.862,13.862,0,0,1,6.627,8.058c.409,1.2.756,2.421,1.1,3.642A3.1,3.1,0,0,1-3176.535-1242.062Zm-1.243-.834c-.355-1.461-.689-2.86-1.035-4.256a12.09,12.09,0,0,0-6.842-8.332,22.252,22.252,0,0,0-15.865-1.235,15.689,15.689,0,0,0-9.639,7.052,20.3,20.3,0,0,0-2.521,7.312c-.053.3.141.363.334.389a25.727,25.727,0,0,0,3.766.451c6.928-.111,13.855-.3,20.782-.468a73.406,73.406,0,0,0,8.64-.5C-3179.378-1242.6-3178.6-1242.752-3177.778-1242.9Zm-2.746,13.94c-.514.4-1,.784-1.487,1.167a1.963,1.963,0,0,1-2.3.232c-.419-.223-.833-.46-1.234-.714a1.972,1.972,0,0,0-2.236-.029q-1.057.632-2.16,1.182a2.552,2.552,0,0,1-1.976.235,20.627,20.627,0,0,1-2.429-1.089,1.728,1.728,0,0,0-1.693-.036c-.559.3-1.109.615-1.658.932a2.489,2.489,0,0,1-2.4.147,13.3,13.3,0,0,1-1.615-.913,2.032,2.032,0,0,0-2.244-.112c-.5.281-.986.6-1.479.9a2.853,2.853,0,0,1-3.222-.035c-.352-.224-.676-.492-1.012-.741a1.357,1.357,0,0,0-1.295-.312,8.877,8.877,0,0,0-1.469.874c-.061.039-.067.207-.052.309.086.6.2,1.194.276,1.8a1.264,1.264,0,0,0,1.2,1.247c2.259.286,4.511.642,6.776.866a71.13,71.13,0,0,0,13.186.022c2.945-.257,5.884-.584,8.822-.921,1.258-.144,2.506-.389,3.756-.6a1.25,1.25,0,0,0,1.143-1.027c.11-.634.141-1.282.213-1.985A3.971,3.971,0,0,1-3180.524-1228.957Zm6.166-.988a2.5,2.5,0,0,0-.8-3.132.657.657,0,0,0-.671-.12,20.02,20.02,0,0,1-2.278.676,83.423,83.423,0,0,1-12.48,1.217c-1.1.049-2.192.065-3.288.077a2.437,2.437,0,0,1-.8-.118,6.064,6.064,0,0,0-2.162-.349c-1.4.039-2.8.04-4.2.041a73.723,73.723,0,0,1-9.9-.325,5.248,5.248,0,0,0-1.463-.051c-1.519.232-2.72,2.322-2.263,3.978.555-.341,1.1-.661,1.626-1a3.569,3.569,0,0,1,2.774-.69,4.849,4.849,0,0,1,2.008,1.146,1.555,1.555,0,0,0,2.2.13c.429-.266.855-.539,1.3-.769a3.408,3.408,0,0,1,3.829.238c.291.212.606.389.913.579a1.575,1.575,0,0,0,1.823-.052,12.132,12.132,0,0,1,1.787-.957,2.885,2.885,0,0,1,2.773.252c.33.207.668.4,1.005.6a2.328,2.328,0,0,0,2.43.022c.606-.335,1.2-.685,1.795-1.044a3.129,3.129,0,0,1,3.364-.048c.34.19.674.391,1.018.572a1.05,1.05,0,0,0,1.147-.058c.346-.235.691-.472,1.029-.718a2.3,2.3,0,0,1,2.784-.091c.425.265.844.539,1.291.826.179-.314.337-.6.508-.887a.956.956,0,0,1,1.3-.526C-3175.422-1230.374-3174.906-1230.149-3174.359-1229.945Zm-28.3-10.03-.048.13c.128.108.252.221.385.323q3.623,2.812,7.245,5.624c.891.7.969.726,1.729-.107,1.682-1.843,3.339-3.709,5-5.571a8,8,0,0,0,.477-.668Zm4.982,6.481c-.48-.4-.878-.731-1.272-1.065-1.67-1.415-1.668-1.363-3.84-1.3-2.479.071-4.961.039-7.441.049-.732,0-1.465-.012-2.2,0-.358.005-.534.231-.593.573a.812.812,0,0,0,.682,1.064,23.394,23.394,0,0,0,3.117.423c2.782.126,5.567.185,8.351.254C-3199.849-1233.472-3198.827-1233.494-3197.678-1233.494Zm6.563.213c.756,0,1.389.041,2.015-.007,2.906-.224,5.814-.431,8.712-.734a25.368,25.368,0,0,0,3.5-.744,1.763,1.763,0,0,0,.83-.565c.262-.305.127-.868-.189-1.281-.248-.323-.515-.085-.74-.013a24.185,24.185,0,0,1-5.7.987c-2,.137-4.006.188-6.008.3a1.3,1.3,0,0,0-.777.272C-3190.016-1234.536-3190.507-1233.947-3191.115-1233.28Zm3.552-4.08c.246,0,.4.008.55,0,1.973-.123,3.956-.166,5.916-.4a30.156,30.156,0,0,0,4.04-.914c.7-.184.868-.631.628-1.306-.292-.818-.8-1.067-1.741-.919-1.039.163-2.082.326-3.129.417-1.192.1-2.392.123-3.587.193-.192.011-.459.027-.556.149C-3186.148-1239.256-3186.821-1238.342-3187.562-1237.36Zm-15.386-.386c-.23-.18-.379-.307-.538-.42a19.223,19.223,0,0,1-1.65-1.181,1.869,1.869,0,0,0-1.316-.531,26.341,26.341,0,0,1-6.537-.414c-.188.4-.382.764-.541,1.146-.238.568-.147.831.44.971a14.739,14.739,0,0,0,2.838.523c2.19.078,4.385.029,6.577.023A5.213,5.213,0,0,0-3202.948-1237.746Z" transform="translate(3216.565 1259.398)" fill="#0b77e3"/><path d="M-3004.236-1198.188c.081.064.327.164.409.34a8.676,8.676,0,0,1,.525,1.449.6.6,0,0,1-.412.72.573.573,0,0,1-.791-.235,7.384,7.384,0,0,1-.477-1.713C-3005.035-1198.007-3004.748-1198.2-3004.236-1198.188Z" transform="translate(3023.321 1203.491)" fill="#0b77e3"/><path d="M-3101.609-1130.222a.52.52,0,0,1-.521-.8,2.055,2.055,0,0,1,1.71-.991c.207.031.527.226.549.381a1.244,1.244,0,0,1-.216.818A2.083,2.083,0,0,1-3101.609-1130.222Z" transform="translate(3112.118 1143.062)" fill="#0b77e3"/><path d="M-2941.693-1124.713c-.2.254-.305.515-.489.591a.66.66,0,0,1-.6-.134,5.425,5.425,0,0,1-.746-1.183.591.591,0,0,1,.274-.785.592.592,0,0,1,.809.186C-2942.17-1125.637-2941.958-1125.187-2941.693-1124.713Z" transform="translate(2967.241 1137.843)" fill="#0b77e3"/><path d="M-2836.77-1106.986c.152.1.459.185.493.336a.876.876,0,0,1-.164.733,3.653,3.653,0,0,1-1.216.7c-.182.058-.521-.183-.7-.373a.608.608,0,0,1,.044-.569A2.506,2.506,0,0,1-2836.77-1106.986Z" transform="translate(2871.175 1120.191)" fill="#0b77e3"/><path d="M-2864.207-1169.575a1.522,1.522,0,0,1-1.194,1.384.479.479,0,0,1-.474-.7,4.565,4.565,0,0,1,.759-.973.641.641,0,0,1,.572-.114C-2864.371-1169.9-2864.271-1169.658-2864.207-1169.575Z" transform="translate(2896.317 1177.749)" fill="#0b77e3"/><path d="M-3039.655-1092.12c-.02.237-.1.491-.464.485a1.429,1.429,0,0,1-1.177-1.149.659.659,0,0,1,.669-.6A1.276,1.276,0,0,1-3039.655-1092.12Z" transform="translate(3056.483 1107.768)" fill="#0b77e3"/></svg>