<svg xmlns="http://www.w3.org/2000/svg" width="53.734" height="60.188" viewBox="0 0 53.734 60.188"><g transform="translate(1376.279 496.27)"><path d="M-1326.227-507.638a33.18,33.18,0,0,1-8.354,2.268,6.851,6.851,0,0,0-5.893,4.522,5.866,5.866,0,0,0,1.22,6.441,2.691,2.691,0,0,0,1.768,1,14.763,14.763,0,0,0,4.859.188,8.35,8.35,0,0,0,6.554-5.643,17.659,17.659,0,0,0,.837-7.85,1.1,1.1,0,0,0-.524-.922Zm-.448,1.814a15.515,15.515,0,0,1-.919,6.723,6.734,6.734,0,0,1-3.193,3.683,8.824,8.824,0,0,1-4.809.792c-.266-.02-.529-.062-.858-.1.157-.187.253-.307.355-.421q2.011-2.236,4.025-4.47c.468-.52.944-1.033,1.4-1.566a.732.732,0,0,0-.069-1.044.731.731,0,0,0-1.012.038,2.639,2.639,0,0,0-.192.2l-5.709,6.34c-.113.126-.229.249-.361.393a4.5,4.5,0,0,1-1.407-3.465,5.576,5.576,0,0,1,5.073-5.164,20.388,20.388,0,0,0,4.236-.846C-1328.991-505.066-1327.874-505.441-1326.675-505.824Z" transform="translate(-11.75 11.368)" fill="#0b77e3"/><path d="M-1355.487-225.7a61.674,61.674,0,0,0,13.725-1.408,26.131,26.131,0,0,0,3.773-1.279,5.47,5.47,0,0,0,1.266-1.055c-.417-.355-.779-.871-1.261-1.035-1.608-.547-3.251-.993-4.895-1.425-.736-.193-1.5-.26-2.258-.389-.7-.121-1.085-.57-.982-1.147.1-.554.564-.838,1.26-.735a30.188,30.188,0,0,1,7.349,1.776,8.828,8.828,0,0,1,1.392.752,2.647,2.647,0,0,1,1.294,2.585,28.146,28.146,0,0,1-4.515,14.11,17.618,17.618,0,0,1-12.814,7.768,23.157,23.157,0,0,1-10.686-.911,17.8,17.8,0,0,1-10.151-8.873,29.9,29.9,0,0,1-3.278-11.869,3.049,3.049,0,0,1,1.524-2.962,14.123,14.123,0,0,1,4.667-1.871,59.728,59.728,0,0,1,13.183-1.464c.432-.007.864-.031,1.294-.015a.947.947,0,0,1,.991.945.924.924,0,0,1-.953.918c-1.822.08-3.649.085-5.468.209a39.909,39.909,0,0,0-11.07,2,8.887,8.887,0,0,0-1.823.933c-.638.42-.648.892.015,1.279a13.436,13.436,0,0,0,2.544,1.18,41.792,41.792,0,0,0,10.349,1.756C-1359.174-225.8-1357.329-225.768-1355.487-225.7Zm-17.683,3.516c.255.7.5,1.445.793,2.168,1.693,4.151,4.294,7.508,8.441,9.461a20.1,20.1,0,0,0,10.39,1.63A16.316,16.316,0,0,0-1339.163-219c.485-1.052.861-2.156,1.268-3.186A75.235,75.235,0,0,1-1373.17-222.179Zm-.985-4.651a8.6,8.6,0,0,1,.154,1.1c.005.912.528,1.3,1.331,1.567a38.539,38.539,0,0,0,8.975,1.768,81.971,81.971,0,0,0,19.889-.461,25.546,25.546,0,0,0,6.01-1.579c.195-.081.452-.242.5-.414.164-.634.252-1.288.381-2.006-.406.185-.72.343-1.044.475a37.8,37.8,0,0,1-11.256,2.23,75.772,75.772,0,0,1-12.578,0C-1366-224.5-1370.185-224.979-1374.155-226.831Z" transform="translate(0 -242.648)" fill="#0b77e3"/><path d="M-1168.3-394.9a6.935,6.935,0,0,0-3.565-6.26,14.848,14.848,0,0,0-6.373-2.01,7.906,7.906,0,0,0-1.822.137.776.776,0,0,0-.639.949c.282,2.278.586,4.554.834,6.835a5.209,5.209,0,0,0,2.965,4.241,8.958,8.958,0,0,0,4.485,1.009,4.044,4.044,0,0,0,3.836-3.249A14.973,14.973,0,0,0-1168.3-394.9Zm-10.539-6.666a2.577,2.577,0,0,1,.33-.014,12.684,12.684,0,0,1,6.143,2.006,5.138,5.138,0,0,1,2.344,5.243,10,10,0,0,1-.544,1.71l-1.065-1.491c-.87-1.219-1.733-2.444-2.612-3.657a.807.807,0,0,0-1.4-.05.891.891,0,0,0,.13,1.083q1.625,2.26,3.236,4.53c.1.141.184.293.331.528a7.015,7.015,0,0,1-5.2-1.538,3.354,3.354,0,0,1-1.1-2.446c-.026-.544-.033-1.091-.092-1.631C-1178.495-398.71-1178.671-400.125-1178.841-401.564Z" transform="translate(-186.691 -89.746)" fill="#0b77e3"/><path d="M-1184.233-247.939c0-.883-.008-1.766,0-2.649a.945.945,0,0,1,1.048-1.063c1.2-.013,2.393,0,3.59,0a.954.954,0,0,1,.958.643c.62,1.545,1.246,3.088,1.845,4.641a.9.9,0,0,1-.7,1.3q-2.806.506-5.624.94c-.678.1-1.109-.328-1.12-1.04C-1184.243-246.1-1184.233-247.017-1184.233-247.939Zm1.914,1.759,3.366-.558c-.387-.97-.734-1.863-1.107-2.745a.522.522,0,0,0-.365-.274c-.621-.028-1.244-.013-1.894-.013Z" transform="translate(-169.43 -228.082)" fill="#0b77e3"/><path d="M-1245.391-211.627a2.831,2.831,0,0,1,2.85,2.828,2.834,2.834,0,0,1-2.8,2.821,2.834,2.834,0,0,1-2.85-2.829A2.832,2.832,0,0,1-1245.391-211.627Zm.041,1.887a.946.946,0,0,0-.952.922.945.945,0,0,0,.92.952.947.947,0,0,0,.953-.922A.945.945,0,0,0-1245.349-209.74Z" transform="translate(-113.008 -263.399)" fill="#0b77e3"/></g><g transform="translate(-14.699 -18.5)"><path d="M41.58,64.384s-2.573-6.809,6.994-9.338,10.35,5.8,10.35,5.8-.047,4.646-7.913,7.314S41.58,64.384,41.58,64.384Z" transform="translate(-3.926 1.263)" fill="#fff"/><g transform="translate(68.433 57.979) rotate(124)"><path d="M22.7,23.463a6.215,6.215,0,0,0,2.283-4.656A9.242,9.242,0,0,0,22.291,11.8a11.745,11.745,0,0,0-3.136-2.391,17.1,17.1,0,0,0-2.821-1.123,10.932,10.932,0,0,0-4.671-.581.84.84,0,0,1-.539-.283C10.1,6.439,9.1,5.431,8.073,4.448a.642.642,0,0,1-.2-.772A2.789,2.789,0,0,0,6.106.151,2.843,2.843,0,0,0,2.54,1.871a.946.946,0,0,1-.495.487A2.842,2.842,0,1,0,3.953,7.7a.774.774,0,0,1,.655.121c1.1.994,2.171,2.014,3.232,3.046a.9.9,0,0,1,.259.606,12.492,12.492,0,0,0,4.658,10.839C14.877,24.014,20,25.422,22.7,23.463ZM21.915,22c-1.771,1.479-4.7.955-6.259.258-4.1-1.832-5.847-5.616-5.941-10.068A2.767,2.767,0,0,1,12.77,9.314a14.761,14.761,0,0,1,5.13,1.344,8.854,8.854,0,0,1,5.405,7.688A4.648,4.648,0,0,1,21.915,22ZM8.826,9.456C7.681,8.38,6.492,7.265,5.306,6.147c-.828-.779-.874-.78-1.8-.125a1.181,1.181,0,0,1-1.452.013,1.08,1.08,0,0,1-.426-1.274,1.1,1.1,0,0,1,1.119-.823c1.2-.049,1.2-.055,1.374-1.274a1.081,1.081,0,0,1,.809-.942,1.082,1.082,0,0,1,1.2.346,1.1,1.1,0,0,1,.16,1.284c-.535,1.081-.533,1.076.339,1.954,1.055,1.063,2.1,2.132,3.2,3.246Z" transform="translate(0 0)" fill="#0b77e3"/></g></g></svg>