<svg xmlns="http://www.w3.org/2000/svg" width="48.742" height="43.061" viewBox="0 0 48.742 43.061"><g transform="translate(0.25 0.25)"><g transform="translate(26.261 9.52)"><path d="M-434.7-1.037c.713-.064,1.411-.127,2.11-.189q3.609-.317,7.219-.632c2.1-.183,4.215-.314,6.31-.569a1.274,1.274,0,0,1,1.545.8,1.756,1.756,0,0,0,1.132.933c.6.208,1.181.484,1.774.719a.359.359,0,0,1,.265.379q.193,7.72.4,15.44.151,5.639.319,11.278c.011.338-.075.46-.411.52-3.345.6-6.687,1.22-10.029,1.835-1.958.361-3.917.72-5.873,1.091a.729.729,0,0,1-.72-.2q-2.349-2.2-4.73-4.367a.584.584,0,0,1-.217-.5q.3-8.855.589-17.711.141-4.241.289-8.482C-434.717-.8-434.705-.9-434.7-1.037Zm19.358,2.143L-430.248,2.6c.161,8.967.32,17.9.48,26.844.155-.019.263-.026.369-.045q7.215-1.328,14.431-2.654c.221-.04.273-.127.267-.342-.058-1.8-.105-3.6-.153-5.394q-.243-9.245-.482-18.49C-415.347,2.06-415.337,1.607-415.337,1.106ZM-433.706.2l-.808,24.467c.722-.791,1.369-1.591,2.007-2.4a.545.545,0,0,0,.091-.3q.2-4.547.383-9.094.152-3.654.3-7.308c.061-1.494.121-2.988.168-4.483a.349.349,0,0,0-.179-.271C-432.375.6-433.018.409-433.706.2Zm14.826-1.562-13.9,1.212a1.6,1.6,0,0,0,.662.28,1.7,1.7,0,0,1,1.5,1.325c.211.646.265.626.945.557l9.05-.908c.525-.053,1.049-.111,1.6-.169ZM-430.4,27.306l.054-.007c0-.113,0-.227,0-.34q-.168-9.589-.338-19.178c-.031-1.712-.062-3.424-.11-5.135a3.269,3.269,0,0,0-.173-.693l-.092.026q-.043,1.088-.087,2.175-.215,5.2-.431,10.393c-.1,2.414-.2,4.828-.295,7.243a2.7,2.7,0,0,0,.093.795c.232.856.488,1.706.737,2.557C-430.825,25.864-430.609,26.585-430.4,27.306Zm-.121,1.748.062-.046-1.811-6.188-2.133,2.656ZM-417.49-.027V.787l1.435-.147.014-.066Zm-.881-.924-.111,1.819.447-.034C-418.146.233-417.752-.413-418.371-.951Z" transform="translate(435.6 2.449)" fill="#0b77e3" stroke="#0b77e3" stroke-width="0.5"/></g><g transform="translate(-0.001 0)"><path d="M-554.685-567.059a.6.6,0,0,1-.294.581c-1.947,1.276-3.881,2.571-5.829,3.846a.885.885,0,0,1-.571.129q-8.791-1.408-17.578-2.84c-.853-.138-1.7-.308-2.56-.4-.411-.044-.449-.228-.452-.562q-.06-6.611-.137-13.222-.054-5.1-.1-10.21a3.137,3.137,0,0,1,.091-.783q1.767-7.029,3.541-14.057c.087-.348.209-.488.6-.478q9.747.229,19.495.416c.31.006.394.126.457.393q1.54,6.483,3.091,12.964a2.53,2.53,0,0,1,.045.581C-554.881-586.782-554.694-571.021-554.685-567.059Zm-26.179-22.581c.08,7.595.159,15.129.239,22.661l18.893,3.059c-.043-8.188-.087-16.324-.13-24.5Zm19.008.542,2.324-14.21-17.863-.376-3.387,13.365Zm.788,25c.2-.123.321-.19.434-.265,1.406-.931,2.808-1.87,4.222-2.788a.69.69,0,0,0,.367-.668q-.1-11.15-.185-22.3c0-.12-.014-.239-.023-.389-.163.056-.3.094-.422.145-1.392.568-2.78,1.148-4.179,1.7a.515.515,0,0,0-.382.58q.094,11.234.168,22.469C-561.066-565.143-561.069-564.671-561.069-564.1Zm4.7-27.407-2.58-10.8a1.229,1.229,0,0,0-.079.186c-.387,2.362-.777,4.723-1.148,7.088a.553.553,0,0,0,.193.4c.834.739,1.681,1.463,2.525,2.191C-557.128-592.144-556.792-591.861-556.373-591.5Zm-3.987-2.527-.773,4.75,4.262-1.737Z" transform="translate(582.209 605.056)" fill="#0b77e3" stroke="#0b77e3" stroke-width="0.5"/><path d="M-504.457-555.49c1.518.055,3.037.1,4.555.167a1.778,1.778,0,0,1,1.669,2.085,2.952,2.952,0,0,1-2.576,2.717,8.609,8.609,0,0,1-1.417-.045c-2.449-.139-4.9-.3-7.346-.417a1.883,1.883,0,0,1-1.7-2.436,2.566,2.566,0,0,1,2.81-2.225c1.337.058,2.674.107,4.011.16Zm-.572.667c-.844-.034-2.278-.092-3.711-.147-.561-.021-.663.074-.7.628a2.133,2.133,0,0,0,1.93,2.188q3.59.181,7.18.34c.769.035.878-.04,1.191-.744a2.939,2.939,0,0,0,.185-.552,1.161,1.161,0,0,0-1.187-1.539C-501.571-554.7-503-554.751-505.029-554.823Zm-5.11.532a1.994,1.994,0,0,0-.452,1.723,1.193,1.193,0,0,0,.548.763,6.924,6.924,0,0,0,1.51.2l.02-.111A3.067,3.067,0,0,1-510.139-554.291Z" transform="translate(517.258 559.783)" fill="#0b77e3" stroke="#0b77e3" stroke-width="0.3"/></g></g></svg>