<svg id="Group_1295" data-name="Group 1295" xmlns="http://www.w3.org/2000/svg" width="12.975" height="12.971" viewBox="0 0 12.975 12.971">
  <path id="Path_2007" data-name="Path 2007" d="M489.3,1521.578h-1a1.605,1.605,0,0,1-1.206-.485,1.415,1.415,0,0,1-.412-1.029c0-2.439.014-4.878-.006-7.317a1.556,1.556,0,0,1,1.507-1.584l.091,0q4.889,0,9.779,0a1.579,1.579,0,0,1,1.261.566,1.346,1.346,0,0,1,.335.891q0,3.75,0,7.5a1.505,1.505,0,0,1-1.442,1.452c-.268.014-.537.008-.805.008-1.348,0-2.7,0-4.045,0a.49.49,0,0,0-.274.091c-1.026.77-2.046,1.546-3.069,2.319a.761.761,0,0,1-.167.1.373.373,0,0,1-.542-.363c0-.654,0-1.309,0-1.963Zm6.238-5.882.031-.011c.028.046.058.092.085.139q.487.85.973,1.7c.026.045.067.112.105.114.18.011.36,0,.535,0v-2.827h-.535v1.89a.324.324,0,0,1-.108-.121q-.473-.831-.948-1.663c-.024-.041-.061-.1-.094-.106-.194-.01-.389-.005-.583-.005v2.822h.538Zm-4.481.9a1.981,1.981,0,0,1-.076.222.671.671,0,0,1-.632.4.755.755,0,0,1-.7-.381,1.491,1.491,0,0,1,.1-1.35c.286-.377,1.071-.341,1.206.128a.118.118,0,0,0,.078.073c.171.006.341,0,.529,0-.013-.07-.017-.119-.031-.166a1.04,1.04,0,0,0-.6-.684,1.389,1.389,0,0,0-1.729.464,1.751,1.751,0,0,0-.074,1.758,1.2,1.2,0,0,0,1.932.3.348.348,0,0,1,.057-.046l.064.328h.368v-1.514h-1.075a.591.591,0,0,0-.073.009v.461Zm2.965-.262a2.16,2.16,0,0,0,.295-.346.81.81,0,0,0-.714-1.171c-.456,0-.912,0-1.368,0a.523.523,0,0,0-.083.013v2.811h.568v-1.1h.469c.467,0,.532.071.539.537,0,.19.03.378.046.56h.641c-.03-.155-.066-.3-.086-.448-.012-.089,0-.182,0-.273A.584.584,0,0,0,494.021,1516.33Z" transform="translate(-486.672 -1511.161)" fill="#0b77e3"/>
  <path id="Path_2008" data-name="Path 2008" d="M496.134,1518.357v-.735c.274,0,.542-.01.808,0,.176.01.276.16.281.373.005.2-.079.339-.259.353C496.694,1518.371,496.421,1518.357,496.134,1518.357Z" transform="translate(-490.067 -1513.478)" fill="#0b77e3"/>
</svg>
