<svg id="icon-procurement" xmlns="http://www.w3.org/2000/svg" width="12.061" height="10.333" viewBox="0 0 12.061 10.333">
  <path id="Path_2016" data-name="Path 2016" d="M54.18,1193.806v.428h.848v.859H46.436v-.85h.84v-.43c-.054,0-.105-.007-.156-.007-.364,0-.727,0-1.091,0a1.279,1.279,0,0,1-1.325-1.333c0-2.109.012-4.218-.007-6.327a1.339,1.339,0,0,1,1.388-1.386c1.939.01,3.878,0,5.818,0q1.738,0,3.476,0a1.318,1.318,0,0,1,1.134.538,1.2,1.2,0,0,1,.243.718q0,3.266,0,6.53a1.267,1.267,0,0,1-1.224,1.253c-.392.012-.785,0-1.178,0Zm-3.444-8.179H46.111c-.4,0-.548.15-.548.542v6.24c0,.381.155.539.537.539h9.264c.38,0,.534-.158.534-.542v-6.225c0-.4-.149-.553-.552-.553Zm2.571,8.187H48.154v.415h5.153Z" transform="translate(-44.697 -1184.76)" fill="#0b77e3"/>
  <path id="Path_2017" data-name="Path 2017" d="M65.226,1188.8h.849v5.578h-.849Z" transform="translate(-56.387 -1187.06)" fill="#0b77e3"/>
  <path id="Path_2018" data-name="Path 2018" d="M53.238,1189.789h.84v5.153h-.84Z" transform="translate(-49.561 -1187.624)" fill="#0b77e3"/>
  <path id="Path_2019" data-name="Path 2019" d="M63.071,1194.943h-.839v-5.154h.839Z" transform="translate(-54.682 -1187.624)" fill="#0b77e3"/>
  <path id="Path_2020" data-name="Path 2020" d="M57.075,1196.087h-.844V1191.8h.844Z" transform="translate(-51.265 -1188.766)" fill="#0b77e3"/>
  <path id="Path_2021" data-name="Path 2021" d="M50.229,1192.791h.845v3.858h-.845Z" transform="translate(-47.847 -1189.333)" fill="#0b77e3"/>
  <path id="Path_2022" data-name="Path 2022" d="M59.228,1192.79h.844v3.858h-.844Z" transform="translate(-52.972 -1189.333)" fill="#0b77e3"/>
</svg>
