<svg id="Group_3595" data-name="Group 3595" xmlns="http://www.w3.org/2000/svg" width="79.817" height="28.6" viewBox="0 0 79.817 28.6">
  <g id="Group_3594" data-name="Group 3594" transform="translate(0 0)">
    <g id="Group_3586" data-name="Group 3586">
      <g id="Group_3574" data-name="Group 3574" transform="translate(11.771)">
        <path id="Path_2030" data-name="Path 2030" d="M309.274,398.2l-1.086-12.977,3.465.433Z" transform="translate(-308.188 -385.224)" fill="#f2f5f7"/>
      </g>
      <g id="Group_3575" data-name="Group 3575" transform="translate(13.193 5.674)">
        <path id="Path_2031" data-name="Path 2031" d="M317.886,432.119l7.57-8.219,1.3,1.514Z" transform="translate(-317.886 -423.9)" fill="#f2f5f7"/>
      </g>
      <g id="Group_3576" data-name="Group 3576" transform="translate(13.639 12.378)">
        <path id="Path_2032" data-name="Path 2032" d="M334.1,469.607v2.43l-13.181-.148Z" transform="translate(-320.921 -469.607)" fill="#f2f5f7"/>
      </g>
      <g id="Group_3577" data-name="Group 3577" transform="translate(14.275 15.19)">
        <path id="Path_2033" data-name="Path 2033" d="M325.258,488.774l11.031,2.379-.865,1.947Z" transform="translate(-325.258 -488.774)" fill="#f2f5f7"/>
      </g>
      <g id="Group_3578" data-name="Group 3578" transform="translate(13.193 15.857)">
        <path id="Path_2034" data-name="Path 2034" d="M317.886,493.323l10.6,7.552-1.73,1.905Z" transform="translate(-317.886 -493.323)" fill="#f2f5f7"/>
      </g>
      <g id="Group_3579" data-name="Group 3579" transform="translate(12.977 17.266)">
        <path id="Path_2035" data-name="Path 2035" d="M316.627,502.922l1.947,8.306-2.163-.216Z" transform="translate(-316.411 -502.922)" fill="#f2f5f7"/>
      </g>
      <g id="Group_3580" data-name="Group 3580" transform="translate(7.786 17.569)">
        <path id="Path_2036" data-name="Path 2036" d="M285.135,504.993l-2.6,11.031-1.514-.649Z" transform="translate(-281.025 -504.993)" fill="#f2f5f7"/>
      </g>
      <g id="Group_3581" data-name="Group 3581" transform="translate(3.677 15.857)">
        <path id="Path_2037" data-name="Path 2037" d="M260.982,493.323l-5.808,9.5-2.163-1.514Z" transform="translate(-253.011 -493.323)" fill="#f2f5f7"/>
      </g>
      <g id="Group_3582" data-name="Group 3582" transform="translate(0 15.19)">
        <path id="Path_2038" data-name="Path 2038" d="M239.193,488.774,228.811,493.1l-.865-2.6Z" transform="translate(-227.946 -488.774)" fill="#f2f5f7"/>
      </g>
      <g id="Group_3583" data-name="Group 3583" transform="translate(0.216 10.648)">
        <path id="Path_2039" data-name="Path 2039" d="M240.451,462.137l-11.031-2.163.865-2.163Z" transform="translate(-229.421 -457.811)" fill="#f2f5f7"/>
      </g>
      <g id="Group_3584" data-name="Group 3584" transform="translate(0 5.674)">
        <path id="Path_2040" data-name="Path 2040" d="M238.977,432.768l-11.031-6.7,1.832-2.163Z" transform="translate(-227.946 -423.9)" fill="#f2f5f7"/>
      </g>
      <g id="Group_3585" data-name="Group 3585" transform="translate(6.489 4.808)">
        <path id="Path_2041" data-name="Path 2041" d="M277.153,427.3l-4.975-8.868,2.6-.433Z" transform="translate(-272.179 -418.002)" fill="#f2f5f7"/>
      </g>
    </g>
    <g id="Group_3593" data-name="Group 3593" transform="translate(31.306 2.816)">
      <g id="Group_3587" data-name="Group 3587">
        <path id="Path_2042" data-name="Path 2042" d="M446.18,410.848a5.975,5.975,0,0,1,1.487-3.375,4.327,4.327,0,0,1,3.1-1.028,6.883,6.883,0,0,1,1.388.14,6.178,6.178,0,0,1,1.319.43l-.256,1.812a5.874,5.874,0,0,0-1.278-.488,5.394,5.394,0,0,0-1.313-.163,2.248,2.248,0,0,0-1.673.622,3.278,3.278,0,0,0-.8,1.876l-.244,1.452h2.242l-.244,1.812h-2.254l-2,13.325h-1.952l1.975-13.325h-1.719l.267-1.812h1.731Z" transform="translate(-443.362 -406.148)" fill="#f2f5f7"/>
        <path id="Path_2043" data-name="Path 2043" d="M443.912,425.834h-2.551l1.975-13.325h-1.719l.355-2.406h1.737l.178-1.032a6.277,6.277,0,0,1,1.575-3.539,4.628,4.628,0,0,1,3.306-1.11,7.224,7.224,0,0,1,1.448.145,6.51,6.51,0,0,1,1.382.45l.2.092-.345,2.447-.372-.193a5.594,5.594,0,0,0-1.213-.464,5.128,5.128,0,0,0-1.241-.154,1.948,1.948,0,0,0-1.462.534,3.012,3.012,0,0,0-.719,1.711l-.187,1.112h2.231l-.324,2.406H445.91Zm-1.863-.594H443.4l2-13.325h2.25l.164-1.219H445.56l.3-1.8a3.569,3.569,0,0,1,.883-2.036,2.543,2.543,0,0,1,1.883-.709,5.718,5.718,0,0,1,1.385.171,6.077,6.077,0,0,1,.969.334l.167-1.187a5.884,5.884,0,0,0-1.053-.322,6.622,6.622,0,0,0-1.329-.133,4.065,4.065,0,0,0-2.9.946,5.727,5.727,0,0,0-1.4,3.21l-.263,1.524h-1.725l-.18,1.219h1.719Z" transform="translate(-441.361 -404.423)" fill="#f2f5f7"/>
      </g>
      <g id="Group_3588" data-name="Group 3588" transform="translate(6.133 5.518)">
        <path id="Path_2044" data-name="Path 2044" d="M487.513,454.959h-2l1.6-10.734h2l-.29,2.021a6.774,6.774,0,0,1,1.417-1.708,2.249,2.249,0,0,1,1.394-.476,2.127,2.127,0,0,1,.424.046,3.488,3.488,0,0,1,.482.139l-.13,2.2c-.109-.023-.616-.315-.713-.327a2.394,2.394,0,0,0-.285-.017,2.317,2.317,0,0,0-1.615.668,6.676,6.676,0,0,0-1.382,2.12Z" transform="translate(-485.171 -443.765)" fill="#f2f5f7"/>
        <path id="Path_2045" data-name="Path 2045" d="M485.766,453.529h-2.6L484.86,442.2h2.6l-.165,1.15a4.628,4.628,0,0,1,.77-.776,2.551,2.551,0,0,1,1.574-.537,2.435,2.435,0,0,1,.483.052,3.771,3.771,0,0,1,.524.151l.208.075-.163,2.769-.338-.072a2.062,2.062,0,0,1-.414-.184c-.09-.045-.236-.12-.291-.141a2.118,2.118,0,0,0-.23-.013,2.013,2.013,0,0,0-1.413.589,6.364,6.364,0,0,0-1.3,1.988Zm-1.91-.594h1.4l.875-5.852.017-.038a6.988,6.988,0,0,1,1.451-2.215,2.615,2.615,0,0,1,1.817-.747,2.674,2.674,0,0,1,.32.02,1.383,1.383,0,0,1,.407.167l.091-1.538q-.121-.036-.232-.059a1.839,1.839,0,0,0-.364-.041,1.945,1.945,0,0,0-1.215.416,6.543,6.543,0,0,0-1.347,1.632l-.738,1.15.436-3.035h-1.4Z" transform="translate(-483.168 -442.039)" fill="#f2f5f7"/>
      </g>
      <g id="Group_3589" data-name="Group 3589" transform="translate(13.033 1.208)">
        <path id="Path_2046" data-name="Path 2046" d="M534.611,429.888h-2.068l1.568-10.734h2.068Zm-.139-14.068a1.126,1.126,0,0,1,1.138-1.138,1.061,1.061,0,0,1,.79.335,1.113,1.113,0,0,1,.325.8,1.093,1.093,0,0,1-.325.8,1.07,1.07,0,0,1-.79.329,1.108,1.108,0,0,1-.813-.323A1.088,1.088,0,0,1,534.471,415.819Z" transform="translate(-532.2 -414.384)" fill="#f2f5f7"/>
        <path id="Path_2047" data-name="Path 2047" d="M532.871,428.459H530.2l1.655-11.328h2.667Zm-1.981-.594h1.468l1.482-10.141h-1.468Zm2.724-12.348a1.4,1.4,0,0,1-1.022-.409,1.453,1.453,0,0,1,.006-2.035,1.4,1.4,0,0,1,1.017-.415,1.353,1.353,0,0,1,1,.424,1.4,1.4,0,0,1,.409,1.011,1.386,1.386,0,0,1-.411,1.007A1.362,1.362,0,0,1,533.613,415.518Zm0-2.265a.83.83,0,0,0-.842.842.794.794,0,0,0,.237.593.815.815,0,0,0,.6.237.777.777,0,0,0,.579-.241.8.8,0,0,0,.24-.59.818.818,0,0,0-.241-.6A.769.769,0,0,0,533.613,413.252Z" transform="translate(-530.203 -412.659)" fill="#f2f5f7"/>
      </g>
      <g id="Group_3590" data-name="Group 3590" transform="translate(17.678 0.163)">
        <path id="Path_2048" data-name="Path 2048" d="M572.236,423.829q-1,.1-1.65.145t-1.08.04a6.207,6.207,0,0,1-4.118-1.255,4.239,4.239,0,0,1-1.493-3.427,6.112,6.112,0,0,1,.72-2.9,6.85,6.85,0,0,1,2.056-2.335,6.326,6.326,0,0,1,2.05-.982,9.869,9.869,0,0,1,2.643-.319h.476l.755-5.239h2.068Zm-1.835-1.638,1.1-7.6q-.081,0-.25-.012t-.25-.012a5.13,5.13,0,0,0-3.6,1.255,4.158,4.158,0,0,0-1.377,3.218,3.09,3.09,0,0,0,3.253,3.264,5.816,5.816,0,0,0,.61-.029A3.682,3.682,0,0,0,570.4,422.191Z" transform="translate(-563.598 -407.257)" fill="#f2f5f7"/>
        <path id="Path_2049" data-name="Path 2049" d="M567.781,422.586a6.518,6.518,0,0,1-4.309-1.324,4.541,4.541,0,0,1-1.6-3.654,6.431,6.431,0,0,1,.755-3.043,7.174,7.174,0,0,1,2.143-2.436,6.65,6.65,0,0,1,2.145-1.028,10.209,10.209,0,0,1,2.723-.33h.219l.755-5.239h2.669l-2.513,16.843-.229.024c-.665.07-1.224.119-1.662.146S568.072,422.586,567.781,422.586Zm1.859-11.222a9.615,9.615,0,0,0-2.563.308,6.056,6.056,0,0,0-1.955.935,6.588,6.588,0,0,0-1.969,2.234,5.844,5.844,0,0,0-.686,2.765,3.923,3.923,0,0,0,1.387,3.2,5.951,5.951,0,0,0,3.927,1.185c.279,0,.637-.013,1.062-.04.378-.024.851-.064,1.408-.121l2.343-15.707h-1.467l-.755,5.239Zm-2.079,9.514a3.385,3.385,0,0,1-3.549-3.561,4.462,4.462,0,0,1,1.473-3.437,5.44,5.44,0,0,1,3.8-1.332c.06,0,.146,0,.27.012s.2.011.23.011h.343L568.94,420.7l-.193.048a4.008,4.008,0,0,1-.546.095A6.123,6.123,0,0,1,567.56,420.878Zm1.719-7.737a4.866,4.866,0,0,0-3.4,1.177,3.841,3.841,0,0,0-1.28,3,2.795,2.795,0,0,0,2.956,2.968,5.578,5.578,0,0,0,.579-.027c.095-.01.186-.023.273-.039l1.027-7.071C569.367,413.143,569.314,413.141,569.279,413.141Z" transform="translate(-561.873 -405.531)" fill="#f2f5f7"/>
      </g>
      <g id="Group_3591" data-name="Group 3591" transform="translate(27.816 5.681)">
        <path id="Path_2050" data-name="Path 2050" d="M641.3,455.9h-2.021l.2-1.336a4.406,4.406,0,0,1-1.324,1.168,3.121,3.121,0,0,1-1.51.378,3.273,3.273,0,0,1-2.6-1.22,4.578,4.578,0,0,1-1.04-3.079,6.608,6.608,0,0,1,.355-2.137,6.862,6.862,0,0,1,1.016-1.928,6.162,6.162,0,0,1,2.428-1.975,9.02,9.02,0,0,1,3.578-.6h2.177a.277.277,0,0,1,.274.318Zm-1.522-3.311.813-5.657c-.062-.008-.132-.014-.209-.017s-.19-.006-.337-.006a4.785,4.785,0,0,0-3.485,1.313,4.5,4.5,0,0,0-1.347,3.369,3.332,3.332,0,0,0,.575,2.039,1.779,1.779,0,0,0,1.493.772,2.242,2.242,0,0,0,1.336-.453A4.4,4.4,0,0,0,639.776,452.593Z" transform="translate(-632.706 -444.873)" fill="#f2f5f7"/>
        <path id="Path_2051" data-name="Path 2051" d="M634.914,454.685a3.571,3.571,0,0,1-2.822-1.324,4.886,4.886,0,0,1-1.111-3.271,6.941,6.941,0,0,1,.37-2.233,7.2,7.2,0,0,1,1.06-2.011,6.483,6.483,0,0,1,2.546-2.069,9.345,9.345,0,0,1,3.7-.629h2.177a.573.573,0,0,1,.568.657l-1.57,10.67h-2.622l.109-.738a3.985,3.985,0,0,1-.751.534A3.43,3.43,0,0,1,634.914,454.685Zm3.74-10.943a8.773,8.773,0,0,0-3.459.579,5.9,5.9,0,0,0-2.311,1.883,6.6,6.6,0,0,0-.971,1.844,6.346,6.346,0,0,0-.339,2.042,4.31,4.31,0,0,0,.969,2.886,2.964,2.964,0,0,0,2.371,1.116,2.844,2.844,0,0,0,1.369-.342,4.135,4.135,0,0,0,1.233-1.091l.688-.866-.309,2.09h1.421l1.492-10.141Zm-3.1,9.235a2.07,2.07,0,0,1-1.731-.892,3.633,3.633,0,0,1-.634-2.216,4.8,4.8,0,0,1,1.437-3.582,5.091,5.091,0,0,1,3.692-1.4c.149,0,.267,0,.351.006s.163.011.231.019l.3.037-.865,6.015-.03.05a4.712,4.712,0,0,1-1.244,1.449A2.543,2.543,0,0,1,635.553,452.977Zm2.765-7.493a4.519,4.519,0,0,0-3.278,1.229,4.177,4.177,0,0,0-1.258,3.156,3.061,3.061,0,0,0,.516,1.862,1.485,1.485,0,0,0,1.255.653,1.935,1.935,0,0,0,1.162-.4,4.071,4.071,0,0,0,1.05-1.22l.759-5.281Z" transform="translate(-630.981 -443.148)" fill="#f2f5f7"/>
      </g>
      <g id="Group_3592" data-name="Group 3592" transform="translate(37.622 5.681)">
        <path id="Path_2052" data-name="Path 2052" d="M703.177,461.306H701.04l2.9-6.064-1.927-10.064a.006.006,0,0,1,.006-.008h2.014l1.359,7.052,3.381-7.052h2.207Z" transform="translate(-700.569 -444.873)" fill="#f2f5f7"/>
        <path id="Path_2053" data-name="Path 2053" d="M700.624,459.877h-2.795l3.065-6.4-1.935-10.1.177-.222.146,0h2.259l1.235,6.409,3.073-6.409h2.867Zm-1.853-.593h1.48l7.519-15.543h-1.547l-3.689,7.694-1.483-7.694h-1.417l1.879,9.815Z" transform="translate(-697.829 -443.148)" fill="#f2f5f7"/>
      </g>
    </g>
  </g>
</svg>
