<svg xmlns="http://www.w3.org/2000/svg" width="21" height="23.002" viewBox="0 0 21 23.002"><g transform="translate(-0.001 0.002)"><path d="M12786,23122h-15a3,3,0,0,1-3-3v-17a3,3,0,0,1,3-3h15a3,3,0,0,1,3,3v17A3,3,0,0,1,12786,23122Zm-12.72-5.193a.612.612,0,0,0,0,1.225h9.784a.612.612,0,0,0,0-1.225Zm0-3.359a.609.609,0,0,0,0,1.219h9.784a.609.609,0,0,0,0-1.219Zm2.449-3.975a.609.609,0,1,0,0,1.219h3.661a3.056,3.056,0,1,0,0-6.111h-2.8l.481-.486a.149.149,0,0,0,.023-.17.549.549,0,0,0-.527-.25,2.886,2.886,0,0,0-1.887,1.086.615.615,0,0,0,0,.865l1.526,1.527a.611.611,0,1,0,.864-.865l-.481-.482h2.8a1.834,1.834,0,1,1,0,3.668Z" transform="translate(-12768 -23099)" fill="#0b77e3"/></g></svg>