<svg xmlns="http://www.w3.org/2000/svg" width="22.436" height="22.78" viewBox="0 0 22.436 22.78"><g transform="translate(-1201.436 -157.304)"><g transform="translate(1211.999 168.211)"><path d="M1561.891,522.253v2.313a1.125,1.125,0,0,0,.732-.384,1.191,1.191,0,0,0,.289-.815,1.02,1.02,0,0,0-.2-.665A1.765,1.765,0,0,0,1561.891,522.253Z" transform="translate(-1555.71 -516.207)" fill="#0b77e3"/><path d="M1531.984,459.373a1.055,1.055,0,0,0-.038,1.329,1.5,1.5,0,0,0,.737.418v-2.1A1.125,1.125,0,0,0,1531.984,459.373Z" transform="translate(-1526.949 -455.909)" fill="#0b77e3"/><path d="M1434.759,392.09a5.937,5.937,0,1,0,5.937,5.937A5.937,5.937,0,0,0,1434.759,392.09Zm1.545,8.427a1.843,1.843,0,0,1-1.3.566v.768h-.447v-.76a2.805,2.805,0,0,1-.926-.255,1.614,1.614,0,0,1-.616-.593,2.12,2.12,0,0,1-.3-1l.764-.143a1.929,1.929,0,0,0,.312.9,1.108,1.108,0,0,0,.768.452v-2.418a3.173,3.173,0,0,1-.958-.363,1.4,1.4,0,0,1-.559-.561,1.788,1.788,0,0,1,.378-2.127,2,2,0,0,1,1.139-.414V394.2H1435v.363a1.877,1.877,0,0,1,1.051.388,1.726,1.726,0,0,1,.6,1.135l-.785.118a1.3,1.3,0,0,0-.281-.686,1.035,1.035,0,0,0-.584-.314v2.19a6.049,6.049,0,0,1,.76.224,1.878,1.878,0,0,1,.578.38,1.53,1.53,0,0,1,.344.532,1.956,1.956,0,0,1-.382,1.984Z" transform="translate(-1428.822 -392.09)" fill="#0b77e3"/></g><path d="M1210.083,174.147a7.852,7.852,0,0,1,7.852-7.852v-8.648a.336.336,0,0,0-.344-.344H1201.78a.336.336,0,0,0-.344.344v18.562a.336.336,0,0,0,.344.344h8.68A7.844,7.844,0,0,1,1210.083,174.147Zm-3.046-13.5h8.575a.344.344,0,1,1,0,.687h-8.575a.344.344,0,0,1,0-.687Zm0,3.437h8.575a.344.344,0,1,1,0,.687h-8.575a.344.344,0,0,1,0-.687Zm-2.406-4.812a1.031,1.031,0,1,1-1.031,1.031A1.037,1.037,0,0,1,1204.631,159.273Zm0,8.937a1.031,1.031,0,1,1,0-2.062h0a1.031,1.031,0,1,1,0,2.062Zm0-3.437a1.031,1.031,0,1,1,1.031-1.031A1.037,1.037,0,0,1,1204.631,164.773Zm2.063,3.094a.344.344,0,0,1,.344-.344h3.6a.344.344,0,0,1,0,.687h-3.6A.344.344,0,0,1,1206.694,167.867Z" fill="#0b77e3"/></g></svg>