<svg xmlns="http://www.w3.org/2000/svg" xmlns:xlink="http://www.w3.org/1999/xlink" width="21.5" height="21.944" viewBox="0 0 21.5 21.944"><defs><clipPath id="a"><path d="M291,371h14.689v11.2H291Z" transform="translate(-291 -371)" fill="#0b77e3"/></clipPath><clipPath id="b"><path d="M372,139.21h9.5V148.7H372Z" transform="translate(-372 -139.21)" fill="#0b77e3"/></clipPath><clipPath id="c"><path d="M144,139.21h9.592v19.22H144Z" transform="translate(-144 -139.21)" fill="#0b77e3"/></clipPath></defs><g transform="translate(6.812 10.74)" clip-path="url(#a)"><path d="M295.889,371.6h10.646v.53a10.724,10.724,0,0,1-10.646,10.646,8.256,8.256,0,0,1-1.754-.163,10.548,10.548,0,0,1-1.713-.408l-.489-.163.163-.489,3.3-9.585.122-.367h.367Z" transform="translate(-291.889 -371.572)" fill="#0b77e3"/></g><g transform="translate(10.565)" clip-path="url(#b)"><path d="M378.607,142.106a10.064,10.064,0,0,0-6.567-2.9v9.463H381.5a9.959,9.959,0,0,0-2.9-6.526Z" transform="translate(-372.038 -139.21)" fill="#0b77e3"/></g><g clip-path="url(#c)"><path d="M151.051,158.421l3.385-9.3V139.21a9.974,9.974,0,0,0-6.567,2.9v.041a9.788,9.788,0,0,0-2.937,7.057,10.116,10.116,0,0,0,1.795,5.751,9.822,9.822,0,0,0,4.324,3.467Z" transform="translate(-144.89 -139.21)" fill="#0b77e3"/></g></svg>