<svg xmlns="http://www.w3.org/2000/svg" width="21.779" height="28.159" viewBox="0 0 21.779 28.159"><g transform="translate(-192.652 -150.814)"><path d="M325.892,150.832a3.022,3.022,0,1,1-3.331,2.677,3.022,3.022,0,0,1,3.331-2.677" transform="translate(-119.531)" fill="#0b77e3"/><path d="M213.281,236.383l-2.72-.416a.642.642,0,0,1-.378-.227c-1.851-2.72-2.531-3.362-3.059-3.513l-1.02,2.266-.265-1.511h.038a.276.276,0,0,0,.265-.227l.038-.378a.276.276,0,0,0-.226-.265l-.491-.038a.276.276,0,0,0-.265.227l-.038.378a.276.276,0,0,0,.227.265h.038l-.416,1.473-.717-2.38c-.416.038-1.209.34-3.89,1.926a4.324,4.324,0,0,0-1.662,1.738l-1.435,2.757a.763.763,0,0,0-.113.416h-.113a.975.975,0,0,0-.529.416l-.416.756-.755-.416a.8.8,0,0,0-1.058.34l-1.586,3.022a.8.8,0,0,0,.34,1.058l4.532,2.38a.8.8,0,0,0,1.058-.34l1.586-3.022a.8.8,0,0,0-.34-1.058l-.756-.416.416-.756a.871.871,0,0,0-.075-.907.822.822,0,0,0,.189-.3l1.435-2.72a1.6,1.6,0,0,1,.642-.68,1.133,1.133,0,0,1,.3-.151l-.831,3.626a2.682,2.682,0,0,0,.378,2.077,2.54,2.54,0,0,0,1.624,1.1l-2.077,8.951a1.553,1.553,0,0,0,1.171,1.851,1.048,1.048,0,0,0,.34.038,1.536,1.536,0,0,0,1.511-1.209l2.077-9.065,1.813.34,1.02,4.571a1.536,1.536,0,0,0,1.511,1.209,1.048,1.048,0,0,0,.34-.038,1.552,1.552,0,0,0,1.171-1.851l-1.057-4.872a2.617,2.617,0,0,0-2.153-2.04l-1.964-.34.793-3.437c.075.113.113.189.189.3a3.284,3.284,0,0,0,2.229,1.4l2.72.416a1.376,1.376,0,0,0,.415-2.72Zm-14.958,4.8-1.473-.756.378-.756a1.364,1.364,0,0,0,.567.567,1.241,1.241,0,0,0,.642.151c.038,0,.113-.038.151-.038l.113.075Z" transform="translate(0 -74.747)" fill="#0b77e3"/></g></svg>