  <svg xmlns="http://www.w3.org/2000/svg" width="21.815" height="21.816" viewBox="0 0 21.815 21.816">
                  <g id="Group_1913" data-name="Group 1913" transform="translate(0 0)">
                    <path id="Ellipse_1" data-name="Ellipse 1" d="M7.713,2a5.713,5.713,0,1,0,5.713,5.713A5.719,5.719,0,0,0,7.713,2m0-2A7.713,7.713,0,1,1,0,7.713,7.713,7.713,0,0,1,7.713,0Z" transform="translate(10.908 0) rotate(45)" fill="#fff"/>
                    <path id="Line_1" data-name="Line 1" d="M3.017,3.984a1,1,0,0,1-.7-.289L-.7.711A1,1,0,0,1-.711-.7,1,1,0,0,1,.7-.711L3.72,2.273a1,1,0,0,1-.7,1.711Z" transform="translate(17.388 16.875)" fill="#fff"/>
                  </g>
                </svg>