 <svg xmlns="http://www.w3.org/2000/svg" width="125.066" height="189.277" viewBox="0 0 125.066 189.277">
                <g id="Group_10089" data-name="Group 10089" transform="translate(-5236.738 14448.948)">
                    <path id="Path_64463" data-name="Path 64463" d="M894.588,612.705c-1.005-8.085-6.016-16.05-13.726-18.681a37.535,37.535,0,0,1,0,25.771c-1.185,3.2-2.836,6.646-1.722,9.876a8.391,8.391,0,0,0,4.286,4.509,24.92,24.92,0,0,0,6.079,1.869l.409.338C893.21,628.937,895.593,620.79,894.588,612.705Z" transform="translate(4448.915 -14897.185)" fill="#f0f0f0"/>
                    <path id="Path_64464" data-name="Path 64464" d="M882.93,593.989a32.083,32.083,0,0,1,7.976,18.056,13.819,13.819,0,0,1-.157,4.326,7.924,7.924,0,0,1-1.971,3.675,16.409,16.409,0,0,0-2.545,3.046,4.852,4.852,0,0,0-.237,3.961,12.608,12.608,0,0,0,2.793,4.167,12.378,12.378,0,0,1,3.1,4.632c.064.222.405.109.341-.113-.925-3.189-4.021-5-5.5-7.873a4.914,4.914,0,0,1-.332-4.311,12.723,12.723,0,0,1,2.525-3.142,8.454,8.454,0,0,0,2.061-3.522,12.773,12.773,0,0,0,.323-4.3,31.128,31.128,0,0,0-2.273-9.459,32.652,32.652,0,0,0-5.871-9.409c-.154-.172-.39.1-.238.269Z" transform="translate(4446.769 -14896.997)" fill="#fff"/>
                    <path id="Path_64465" data-name="Path 64465" d="M899.2,621.871a4.813,4.813,0,0,0,3.664-5.042.18.18,0,0,0-.359.018,4.457,4.457,0,0,1-3.418,4.683C898.863,621.583,898.977,621.924,899.2,621.871Z" transform="translate(4438.378 -14908.995)" fill="#fff"/>
                    <path id="Path_64466" data-name="Path 64466" d="M891.389,641.951a9.277,9.277,0,0,1-4.143-5.343c-.065-.222-.406-.109-.341.113a9.65,9.65,0,0,0,4.322,5.551c.2.118.36-.2.161-.321Z" transform="translate(4444.674 -14919.337)" fill="#fff"/>
                    <path id="Path_64467" data-name="Path 64467" d="M889.03,606.781a2.725,2.725,0,0,1-2.582-.131c-.2-.121-.358.2-.161.321a3.054,3.054,0,0,0,2.856.151.186.186,0,0,0,.114-.227A.18.18,0,0,0,889.03,606.781Z" transform="translate(4445.04 -14903.757)" fill="#fff"/>
                    <path id="Path_64468" data-name="Path 64468" d="M834.011,623.275c.121.079.242.158.364.239a35.887,35.887,0,0,1,4.588,3.582c.112.1.224.2.333.306a37.829,37.829,0,0,1,8.215,11.246,36.732,36.732,0,0,1,2.012,5.206c.742,2.464,1.352,5.194,2.821,7.209a6.3,6.3,0,0,0,.491.606h13.282c.03-.015.06-.027.091-.042l.53.024c-.021-.094-.045-.191-.067-.285-.012-.055-.027-.109-.039-.164-.009-.036-.018-.073-.024-.106,0-.012-.006-.024-.009-.033-.006-.033-.015-.064-.021-.094q-.2-.814-.412-1.627s0,0,0-.006a54.018,54.018,0,0,0-4.546-11.934c-.061-.112-.121-.227-.188-.339a35.054,35.054,0,0,0-3.149-4.776,30.971,30.971,0,0,0-2.064-2.361,25.769,25.769,0,0,0-6.449-4.831,20.462,20.462,0,0,0-15.37-1.942C834.269,623.193,834.142,623.232,834.011,623.275Z" transform="translate(4472.263 -14911.995)" fill="#f0f0f0"/>
                    <path id="Path_64469" data-name="Path 64469" d="M833.9,624.17a32.083,32.083,0,0,1,17.239,9.615,13.815,13.815,0,0,1,2.479,3.549,7.924,7.924,0,0,1,.639,4.121,16.4,16.4,0,0,0-.2,3.965,4.852,4.852,0,0,0,2.2,3.305A12.605,12.605,0,0,0,861,650.371a12.379,12.379,0,0,1,5.266,1.83c.185.139.389-.157.2-.3-2.658-1.99-6.221-1.572-9.129-2.977a4.914,4.914,0,0,1-2.861-3.242,12.724,12.724,0,0,1,.125-4.029,8.455,8.455,0,0,0-.475-4.053,12.772,12.772,0,0,0-2.333-3.631,31.125,31.125,0,0,0-7.51-6.184,32.655,32.655,0,0,0-10.353-3.978c-.226-.045-.252.314-.028.358Z" transform="translate(4472.399 -14912.723)" fill="#fff"/>
                    <path id="Path_64470" data-name="Path 64470" d="M866.748,634.3a4.813,4.813,0,0,0-.11-6.232c-.153-.173-.429.057-.276.23a4.457,4.457,0,0,1,.091,5.8C866.306,634.27,866.6,634.474,866.748,634.3Z" transform="translate(4455.41 -14914.91)" fill="#fff"/>
                    <path id="Path_64471" data-name="Path 64471" d="M869.527,657.353A9.278,9.278,0,0,1,863,655.581c-.186-.138-.39.157-.2.3a9.65,9.65,0,0,0,6.794,1.83C869.822,657.68,869.756,657.327,869.527,657.353Z" transform="translate(4457.284 -14929.277)" fill="#fff"/>
                    <path id="Path_64472" data-name="Path 64472" d="M846.468,629.049a2.724,2.724,0,0,1-2.141,1.45c-.23.023-.165.376.064.353a3.053,3.053,0,0,0,2.372-1.6.185.185,0,0,0-.045-.25.18.18,0,0,0-.25.045Z" transform="translate(4466.956 -14915.416)" fill="#fff"/>
                    <rect id="Rectangle_7866" data-name="Rectangle 7866" width="65.33" height="39.169" transform="translate(5296.474 -14448.948)" fill="#0b77e3"/>
                    <path id="Path_64473" data-name="Path 64473" d="M878.465,404.754H839.594a1.831,1.831,0,0,1,0-3.662h38.871a1.831,1.831,0,0,1,0,3.662Z" transform="translate(4470.305 -14796.538)" fill="#e4e4e4"/>
                    <path id="Path_64474" data-name="Path 64474" d="M879.033,391.651H852.7a1.831,1.831,0,1,1,0-3.662h26.337a1.831,1.831,0,0,1,0,3.662Z" transform="translate(4463.471 -14789.703)" fill="#e4e4e4"/>
                    <rect id="Rectangle_7867" data-name="Rectangle 7867" width="65.33" height="39.169" transform="translate(5296.474 -14377.721)" fill="#f0f0f0"/>
                    <path id="Path_64475" data-name="Path 64475" d="M878.465,553.661H839.594a1.831,1.831,0,0,1,0-3.662h38.871a1.831,1.831,0,0,1,0,3.662Z" transform="translate(4470.305 -14874.219)" fill="#e4e4e4"/>
                    <path id="Path_64476" data-name="Path 64476" d="M879.033,540.56H852.7a1.831,1.831,0,1,1,0-3.662h26.337a1.831,1.831,0,0,1,0,3.662Z" transform="translate(4463.471 -14867.385)" fill="#e4e4e4"/>
                    <path id="Path_64477" data-name="Path 64477" d="M672.662,446.753h3.812l1.814-14.706h-5.627Z" transform="translate(4608.332 -14710.12)" fill="#ffb6b6"/>
                    <path id="Path_64478" data-name="Path 64478" d="M779.13,674.614h7.509a4.785,4.785,0,0,1,4.785,4.784v.156H779.13Z" transform="translate(4500.893 -14939.226)" fill="#2f2e41"/>
                    <path id="Path_64479" data-name="Path 64479" d="M631.924,446.753h3.812l1.814-14.706h-5.627Z" transform="translate(4629.584 -14710.12)" fill="#ffb6b6"/>
                    <path id="Path_64480" data-name="Path 64480" d="M738.392,674.614H745.9a4.785,4.785,0,0,1,4.785,4.784v.156H738.392Z" transform="translate(4522.144 -14939.226)" fill="#2f2e41"/>
                    <path id="Path_64481" data-name="Path 64481" d="M808.9,329.9a4.33,4.33,0,1,0-8.336,1.645l-8.761,13.862L786.353,356.4l4.5,3.995,3.464-3.646,11.328-22.657A4.328,4.328,0,0,0,808.9,329.9Z" transform="translate(4497.125 -14757.142)" fill="#ffb6b6"/>
                    <path id="Path_64482" data-name="Path 64482" d="M712.462,428.232l-8.588-1.331-2.046,15.537-11.146,23.986a4.332,4.332,0,1,0,5.971,1.389l11.654-21.044Z" transform="translate(4548.098 -14810.002)" fill="#ffb6b6"/>
                    <path id="Path_64483" data-name="Path 64483" d="M741.109,483.794s-7.552,6.984-6.593,24.543l2.116,27.127-.534,37.814,7.757-.609,6.777-63.372,6.5,25.982L754.8,569.891l7.472.173,7.851-39.115-1.861-28.995-3.126-18.161Z" transform="translate(4524.209 -14839.682)" fill="#2f2e41"/>
                    <path id="Path_64484" data-name="Path 64484" d="M745.605,398.3l-18.043,5.052,9.174,27.488-1.371,10.516,27.82.18-6.443-20.325s3.616-7.435-.513-12.647Z" transform="translate(4527.793 -14795.083)" fill="#0b77e3"/>
                    <path id="Path_64485" data-name="Path 64485" d="M760.757,394.386l2.165-4.33s-.07-1.088,5.017-1.627l5.969-5.932,5.463,5.445L770.139,401.6Z" transform="translate(4510.477 -14786.839)" fill="#0b77e3"/>
                    <path id="Path_64486" data-name="Path 64486" d="M729.2,411.369s-6.5-7.217-10.1-3.609-1.758,15.083-1.758,15.083l11.24,1.744Z" transform="translate(4533.376 -14799.49)" fill="#0b77e3"/>
                    <path id="Ellipse_358" data-name="Ellipse 358" d="M740.49,358.407c11.062.05,11.061,16.869,0,16.917C729.428,375.275,729.429,358.455,740.49,358.407Z" transform="translate(4525.377 -14774.271)" fill="#ffb6b6"/>
                    <path id="Path_64487" data-name="Path 64487" d="M729.336,360.184a12.364,12.364,0,0,0,4.774,1.97,4.22,4.22,0,0,0,4.37-2.128,4.91,4.91,0,0,0,.339-1.73,11.5,11.5,0,0,0-2.91-8.239,10.426,10.426,0,0,0-8-3.383c-2.858.124-5.5,1.477-8.036,2.8-2.332,1.217-4.8,2.559-6.062,4.864-1.878,3.417-.509,7.6-.144,11.481a21.629,21.629,0,0,1-5.214,16.087l15.739,1.491a18.424,18.424,0,0,0,5.746-.059,9.185,9.185,0,0,0,4.368-15.581c-2.234-2.151-5.827-3.673-5.915-6.773" transform="translate(4537.763 -14768.148)" fill="#2f2e41"/>
                </g>
                </svg>