<svg xmlns="http://www.w3.org/2000/svg" width="11.981" height="13.731" viewBox="0 0 11.981 13.731">
  <g id="Group_9668" data-name="Group 9668" transform="translate(-195.89 -169.59)">
    <path id="Path_63962" data-name="Path 63962" d="M298.479,181.046a.924.924,0,0,0,.923-.923v-7.734h-1.918a1.232,1.232,0,0,1-1.231-1.231V169.59h-4.76a.924.924,0,0,0-.923.923v.736h2.748a.308.308,0,0,1,.211.084l3.068,2.9a.308.308,0,0,1,.1.224v6.59Z" transform="translate(-91.531)" fill="#0b77e3"/>
    <path id="Path_63963" data-name="Path 63963" d="M380.605,249.907h1.531l-2.147-2.029v1.414A.616.616,0,0,0,380.605,249.907Z" transform="translate(-177.977 -75.684)" fill="#0b77e3"/>
    <path id="Path_63964" data-name="Path 63964" d="M479.93,182.076a.616.616,0,0,0,.615.615h1.334l-1.949-1.808Z" transform="translate(-274.593 -10.917)" fill="#0b77e3"/>
    <path id="Path_63965" data-name="Path 63965" d="M195.89,243.233V248.5a.924.924,0,0,0,.923.923h6.811a.924.924,0,0,0,.923-.923v-7.559h-1.918a1.232,1.232,0,0,1-1.231-1.231v-1.744h-4.585a.924.924,0,0,0-.923.923Z" transform="translate(0 -66.104)" fill="#0b77e3"/>
  </g>
</svg>
