<svg xmlns="http://www.w3.org/2000/svg" width="12.213" height="16.792" viewBox="0 0 12.213 16.792">
  <path id="Path_63960" data-name="Path 63960" d="M225.222,167.62a.762.762,0,0,0-.763.763v15.266a.762.762,0,0,0,.763.763h10.686a.762.762,0,0,0,.763-.763V168.383a.761.761,0,0,0-.763-.763Zm1.527,2.481h7.633a.382.382,0,1,1,0,.763h-7.633a.382.382,0,1,1,0-.763Zm0,3.435h7.633a.382.382,0,0,1,0,.763h-7.633a.382.382,0,1,1,0-.763Zm0,3.435h7.633a.382.382,0,1,1,0,.763h-7.633a.382.382,0,1,1,0-.763Zm8.373,1.521a.382.382,0,0,1,.3.644l-2.481,2.672a.4.4,0,0,1-.507.048l-1.527-1.145a.382.382,0,1,1,.453-.614l1.252.942,2.248-2.421a.386.386,0,0,1,.256-.125Zm-8.373,1.914h2.862a.382.382,0,0,1,0,.763h-2.862a.382.382,0,1,1,0-.763Z" transform="translate(-224.459 -167.62)" fill="#0b77e3"/>
</svg>
