<svg xmlns="http://www.w3.org/2000/svg" width="18" height="20" viewBox="0 0 18 20"><g transform="translate(-0.366 -0.366)"><g transform="translate(0 0)"><rect width="18" height="20" rx="3" transform="translate(0.366 0.366)" fill="#0b77e3"/><path d="M6.574.5H0A.5.5,0,0,1-.5,0,.5.5,0,0,1,0-.5H6.574a.5.5,0,0,1,.5.5A.5.5,0,0,1,6.574.5Z" transform="translate(5.477 10.025)" fill="#f7f7ff"/><path d="M6.574.5H0A.5.5,0,0,1-.5,0,.5.5,0,0,1,0-.5H6.574a.5.5,0,0,1,.5.5A.5.5,0,0,1,6.574.5Z" transform="translate(5.477 5.782)" fill="#f7f7ff"/><path d="M4.159.5H0A.5.5,0,0,1-.5,0,.5.5,0,0,1,0-.5H4.159a.5.5,0,0,1,.5.5A.5.5,0,0,1,4.159.5Z" transform="translate(5.137 14.268)" fill="#f7f7ff"/></g></g></svg>