<svg xmlns="http://www.w3.org/2000/svg" width="17.502" height="23.58" viewBox="0 0 17.502 23.58"><path d="M13274.27,23479.58h0l-2.262,0a.984.984,0,0,1-1.008-1v-17.055a1,1,0,0,1,1-1l8.709.049,3.33,3.021v14.986a.98.98,0,0,1-1,1h-2.346v-1.633a3.2,3.2,0,0,0-.907-2.275,3.1,3.1,0,0,0-4.614,0,3.213,3.213,0,0,0-.9,2.275v1.635Zm3.2-11.428a2.958,2.958,0,0,0-2.917,2.916,2.921,2.921,0,0,0,2.917,2.906,2.87,2.87,0,0,0,2.075-.844,2.922,2.922,0,0,0-2.075-4.979Zm7.572,3.025v-8.035l-3.941-3.57-3.142-.02v-2.42a1.133,1.133,0,0,1,1.132-1.133h6.022v3.012a.354.354,0,0,0,.371.377h3.018v10.537a1.106,1.106,0,0,1-1.132,1.131l-2.327.121Zm3.229-12.543h-2.41v-2.4l2.409,2.4Z" transform="translate(-13270.999 -23456)" fill="#0b77e3"/></svg>