<svg id="Component_169_6" data-name="Component 169 – 6" xmlns="http://www.w3.org/2000/svg" width="19.474" height="17.596" viewBox="0 0 19.474 17.596">
  <g id="Group_10865" data-name="Group 10865" transform="translate(-106.388 -293.111)">
    <g id="_5" data-name=" 5">
      <g id="Component_169_1" data-name="Component 169 1">
        <g id="Group_10389" data-name="Group 10389">
          <path id="Path_65169" data-name="Path 65169" d="M119.836,298.234a6.025,6.025,0,1,0,6.026,6.041v-.015a6.019,6.019,0,0,0-6.012-6.026Zm2.66,7.83a2.5,2.5,0,0,1-2.232,2.387v.213a.414.414,0,0,1-.827,0v-.213a2.5,2.5,0,0,1-2.232-2.387c0-.764,1.285-.764,1.285,0a1.208,1.208,0,0,0,.948,1.163V304.81a2.374,2.374,0,0,1,0-4.74v-.215a.413.413,0,0,1,.826-.038.241.241,0,0,1,0,.038v.215a2.492,2.492,0,0,1,2.232,2.355.6.6,0,0,1-.6.6l-.044,0a.6.6,0,0,1-.641-.552c0-.014,0-.029,0-.043a1.266,1.266,0,0,0-.949-1.163v2.445a2.466,2.466,0,0,1,2.233,2.357Z" fill="#0b77e3" fill-rule="evenodd"/>
          <path id="Path_65170" data-name="Path 65170" d="M120.264,307.226a1.186,1.186,0,0,0,0-2.324Z" fill="#0b77e3" fill-rule="evenodd"/>
          <path id="Path_65171" data-name="Path 65171" d="M118.49,302.424a1.24,1.24,0,0,0,.947,1.194v-2.355A1.206,1.206,0,0,0,118.49,302.424Z" fill="#0b77e3" fill-rule="evenodd"/>
        </g>
      </g>
    </g>
    <path id="Path_65560" data-name="Path 65560" d="M-1,0H9.418V2.228H-1Z" transform="translate(107.388 293.111)" fill="#0b77e3"/>
    <path id="Path_65557" data-name="Path 65557" d="M114.137,298.234h-7.749v2.228h6.082A8.336,8.336,0,0,1,114.137,298.234Z" fill="#0b77e3"/>
    <path id="Path_65558" data-name="Path 65558" d="M111.554,304.261a8.177,8.177,0,0,1,.049-.9h-5.215v2.227h5.278A8.365,8.365,0,0,1,111.554,304.261Z" fill="#0b77e3"/>
    <path id="Path_65559" data-name="Path 65559" d="M112.7,308.479h-6.316v2.228h8.22A8.332,8.332,0,0,1,112.7,308.479Z" fill="#0b77e3"/>
  </g>
</svg>
