<svg xmlns="http://www.w3.org/2000/svg" width="17.141" height="22.854" viewBox="0 0 17.141 22.854"><path d="M294.447,161.711a.45.45,0,0,1-.476-.476v-3.809h-7.618a1.432,1.432,0,0,0-1.428,1.428v1.428h6.333l4.142,4.19v12h1.428a1.4,1.4,0,0,0,1.428-1.428V161.711Z" transform="translate(-281.116 -157.426)" fill="#0b77e3"/><path d="M403.32,238.8h3.047l-3.047-3.047Z" transform="translate(-393.321 -231.66)" fill="#0b77e3"/><path d="M477.9,164.609l-1.714-1.714v3.047h3Z" transform="translate(-462.377 -162.609)" fill="#0b77e3"/><path d="M221.117,234.09v-3.809H213.5a1.432,1.432,0,0,0-1.428,1.428V247.9a1.4,1.4,0,0,0,1.428,1.428h10.475A1.4,1.4,0,0,0,225.4,247.9V234.567h-3.809a.45.45,0,0,1-.476-.476Zm.952,11.427H215.4a.476.476,0,0,1,0-.952h6.666a.476.476,0,1,1,0,.952Zm-6.19-2.857a.45.45,0,0,1,.476-.476h4.761a.476.476,0,0,1,0,.952h-4.761A.45.45,0,0,1,215.879,242.66Zm6.666-2.381a.45.45,0,0,1-.476.476H215.4a.476.476,0,1,1,0-.952h6.666A.477.477,0,0,1,222.545,240.28Zm-1.428-1.9h-4.761a.476.476,0,0,1,0-.952h4.761a.476.476,0,1,1,0,.952Z" transform="translate(-212.07 -226.472)" fill="#0b77e3"/></svg>