<svg xmlns="http://www.w3.org/2000/svg" width="18.519" height="20.504" viewBox="0 0 18.519 20.504">
  <g id="icon-retail-mgmt" transform="translate(1)">
    <path id="Path_65641" data-name="Path 65641" d="M213.462,189.308v11.457a2.848,2.848,0,0,0,2.848,2.847h10.822a2.848,2.848,0,0,0,2.848-2.847V189.308Z" transform="translate(-213.462 -184.108)" fill="none" stroke="#0b77e3" stroke-width="2"/>
    <path id="Path_65642" data-name="Path 65642" d="M221.721,197a5.2,5.2,0,0,1-5.2-5.2h1.354a3.845,3.845,0,0,0,7.689,0h1.354a5.2,5.2,0,0,1-5.2,5.2Z" transform="translate(-213.462 -184.108)" fill="#0a77e3"/>
    <path id="Path_65643" data-name="Path 65643" d="M221.721,191.8a5.2,5.2,0,0,0-5.2,5.2h1.354a3.844,3.844,0,0,1,7.689,0h1.354a5.2,5.2,0,0,0-5.2-5.2Z" transform="translate(-213.463 -191.8)" fill="#0a77e3"/>
  </g>
</svg>