<svg id="icons-setting-chart" xmlns="http://www.w3.org/2000/svg" width="15.048" height="15.835" viewBox="0 0 15.048 15.835">
  <path id="Path_65139" data-name="Path 65139" d="M189.73,187.969l-.792.458a.792.792,0,0,0-.29,1.081l1.178,2.041h0a.792.792,0,0,0,1.082.29l.8-.461a1.573,1.573,0,0,1,1.572,0l.016.009a1.574,1.574,0,0,1,.792,1.365v.962a.792.792,0,0,0,.792.792h2.375a.792.792,0,0,0,.792-.792v-.964a1.572,1.572,0,0,1,.788-1.362l.017-.01a1.573,1.573,0,0,1,1.572,0l.8.461a.792.792,0,0,0,1.082-.29c1.449-1.575,1.31-2.439,1.255-2.642a.792.792,0,0,0-.37-.48l-.792-.458a1.579,1.579,0,0,1-.792-1.372v-.017a1.574,1.574,0,0,1,.211-.792c.139-.241.339-.441,1.372-1.037a.792.792,0,0,0,.29-1.082l-1.18-2.041a.792.792,0,0,0-1.081-.29l-.8.461a1.573,1.573,0,0,1-1.572,0l-.011-.008a1.574,1.574,0,0,1-.792-1.365v-.963a.792.792,0,0,0-.792-.792h-2.375a.792.792,0,0,0-.792.792v1.024a1.47,1.47,0,0,1-.736,1.272l-.121.07a1.469,1.469,0,0,1-1.467,0l-.85-.491a.792.792,0,0,0-1.081.29l-1.178,2.041a.791.791,0,0,0-.08.6,1.453,1.453,0,0,0,.368.481,7.327,7.327,0,0,1,1.372,1.038,1.684,1.684,0,0,1,0,1.6,1.577,1.577,0,0,1-.581.579Zm6.334-3.755a2.375,2.375,0,1,1-1.68.7A2.375,2.375,0,0,1,196.063,184.213Z" transform="translate(-188.542 -178.671)" fill="#658cc5" opacity="0.5"/>
</svg>
