<svg xmlns="http://www.w3.org/2000/svg" width="19.044" height="23.868" viewBox="0 0 19.044 23.868"><path d="M419.2,156.787l-3.744-3.743a.527.527,0,0,0-.151-.1v3.995H419.3a.531.531,0,0,0-.1-.151Z" transform="translate(-403.697 -152.843)" fill="#0b77e3"/><path d="M211.408,165.22c.276,0,.553.025.8.05v-8.718h-4.8a.7.7,0,0,1-.7-.7v-4.8h-9.5a.719.719,0,0,0-.7.7v18.767a.7.7,0,0,0,.7.7h8.668a2.737,2.737,0,0,1-.025-.452,5.554,5.554,0,0,1,5.552-5.552Zm-11-10.074h3.417a.719.719,0,0,1,.7.7.7.7,0,0,1-.7.7H200.4a.7.7,0,0,1-.7-.7A.719.719,0,0,1,200.4,155.146Zm0,3.743h7.914a.7.7,0,0,1,0,1.407H200.4a.7.7,0,1,1,0-1.407Zm0,3.718h7.914a.7.7,0,0,1,0,1.407H200.4a.7.7,0,0,1-.7-.7.719.719,0,0,1,.7-.7Zm3.718,5.15H200.4a.719.719,0,0,1-.7-.7.7.7,0,0,1,.7-.7h3.718a.7.7,0,0,1,.7.7A.719.719,0,0,1,204.122,167.758Z" transform="translate(-196.509 -151.05)" fill="#0b77e3"/><path d="M403.354,444.67a4.145,4.145,0,1,0,4.145,4.145A4.15,4.15,0,0,0,403.354,444.67Zm1.935,3.768-2.01,2.01a.747.747,0,0,1-.5.2.8.8,0,0,1-.5-.2l-1-1a.693.693,0,0,1,.98-.98l.5.5,1.507-1.507a.682.682,0,0,1,.98,0,.645.645,0,0,1,.05.98Z" transform="translate(-388.456 -429.093)" fill="#0b77e3"/></svg>