<svg xmlns="http://www.w3.org/2000/svg" width="16.611" height="25.32" viewBox="0 0 16.611 25.32"><path d="M245.1,181.005a4.135,4.135,0,0,1-1.687.72l.2,1.581h-2.761l.21-1.629a4.045,4.045,0,0,1-1.591-.771,4.765,4.765,0,0,1-1.537-2.873l2.1-.475a2.269,2.269,0,0,0,2.261,2.019,2.145,2.145,0,0,0,1.582-.534,1.649,1.649,0,0,0,.446-1.744c-.321-.789-1.3-1.018-2.064-1.244a8.565,8.565,0,0,1-2.5-.993,3.7,3.7,0,0,1,.5-6.316,4.222,4.222,0,0,1,.816-.249l-.233-1.8h2.761l-.237,1.833a4.163,4.163,0,0,1,1.3.518,3.453,3.453,0,0,1,1.477,2.262l-2.2.437a1.731,1.731,0,0,0-.537-.815,1.883,1.883,0,0,0-1.115-.371c-.718-.023-1.654.163-1.928.886a1.119,1.119,0,0,0,.256,1.174,5.176,5.176,0,0,0,2,.864,9.378,9.378,0,0,1,2.347.931,3.319,3.319,0,0,1,1.189,1.314,4.391,4.391,0,0,1-1.058,5.279m4.693-18.117H234.678a.748.748,0,0,0-.749.748V187.8a.372.372,0,0,0,.631.267l.2-.194a1.2,1.2,0,0,1,1.661,0,1.2,1.2,0,0,0,1.661,0,1.2,1.2,0,0,1,1.661,0,1.2,1.2,0,0,0,1.661,0,1.2,1.2,0,0,1,1.661,0,1.2,1.2,0,0,0,1.661,0,1.2,1.2,0,0,1,1.661,0,1.2,1.2,0,0,0,1.661,0,1.2,1.2,0,0,1,1.661,0l.2.194a.372.372,0,0,0,.63-.267V163.637a.748.748,0,0,0-.749-.748" transform="translate(-233.93 -162.888)" fill="#0b77e3" fill-rule="evenodd"/></svg>