<svg xmlns="http://www.w3.org/2000/svg" width="19.148" height="24.292" viewBox="0 0 19.148 24.292"><line x2="6.574" transform="translate(3.77 12.146)" fill="none" stroke="#f7f7ff" strokeLinecap="round" strokeWidth="1"/><line x2="6.574" transform="translate(3.77 7.304)" fill="none" stroke="#f7f7ff" strokeLinecap="round" strokeWidth="1"/><line x2="4.159" transform="translate(3.266 16.987)" fill="none" stroke="#f7f7ff" strokeLinecap="round" strokeWidth="1"/><path d="M221.1,171.87a2.114,2.114,0,0,0-1.99-.05A5.994,5.994,0,0,0,217,173.946a6.837,6.837,0,0,1-.487.653c-.409.46-.79.636-1.093.531v-9.879a1.471,1.471,0,0,0-.717-1.268,1.407,1.407,0,0,0-1.433,0,1.471,1.471,0,0,0-.717,1.268v7.222a.2.2,0,0,1-.2.2h-.34a.2.2,0,0,1-.2-.2V162.431a1.47,1.47,0,0,0-.717-1.268,1.406,1.406,0,0,0-1.433,0,1.47,1.47,0,0,0-.717,1.268v10.042a.2.2,0,1,1-.41,0v-8.025a1.47,1.47,0,0,0-.717-1.268,1.407,1.407,0,0,0-1.433,0,1.471,1.471,0,0,0-.717,1.268v8.025a.2.2,0,1,1-.409,0v-4.95a1.471,1.471,0,0,0-.717-1.268,1.406,1.406,0,0,0-1.433,0,1.47,1.47,0,0,0-.717,1.268v11.3a6.513,6.513,0,0,0,1.869,4.574,6.238,6.238,0,0,0,4.495,1.865h1.462a6.315,6.315,0,0,0,4.427-1.77,8.557,8.557,0,0,0,.671-.741,8.977,8.977,0,0,0,.9-1.255c.582-.941,1.179-1.971,1.761-2.962a27.508,27.508,0,0,1,2.6-4.071,2.1,2.1,0,0,0,.962-1.828h0a.957.957,0,0,0-.451-.762Z" transform="translate(-202.406 -160.967)" fill="#0b77e3"/></svg>