<svg xmlns="http://www.w3.org/2000/svg" width="21.131" height="20.072" viewBox="0 0 21.131 20.072">
  <g id="icon-accounts" transform="translate(1 1)">
    <g id="Group_10860" data-name="Group 10860">
      <path id="Path_65543" data-name="Path 65543" d="M273.164,131.719v-4.048a4.155,4.155,0,0,0-4.148-4.162h-5.533a4.156,4.156,0,0,0-4.149,4.161h0v8.323a4.155,4.155,0,0,0,4.149,4.161h3.84" transform="translate(-259.334 -123.509)" fill="none" stroke="#0b77e3" stroke-miterlimit="10" stroke-width="2"/>
      <path id="Path_65544" data-name="Path 65544" d="M266.424,133.329h-2.8a.692.692,0,0,1-.692-.693h0a.693.693,0,0,1,.69-.694h2.8a.692.692,0,0,1,.692.692v0a.692.692,0,0,1-.692.694h0Z" transform="translate(-259.687 -124.313)" fill="#0b77e3"/>
      <path id="Path_65545" data-name="Path 65545" d="M269.344,129.191h-5.716a.692.692,0,0,1-.692-.693h0a.694.694,0,0,1,.692-.694h5.716a.692.692,0,0,1,.692.693h0a.693.693,0,0,1-.69.694h0Z" transform="translate(-259.687 -123.918)" fill="#0b77e3"/>
      <path id="Path_65157" data-name="Path 65157" d="M279.444,138.228h-6.208l1.575-1.58a1.04,1.04,0,0,0,0-1.469l0,0a1.037,1.037,0,0,0-1.467,0L270,138.532A1.051,1.051,0,0,0,270,140l3.345,3.355a1.039,1.039,0,0,0,1.469-1.47l0,0-1.575-1.579h6.208a1.038,1.038,0,0,0,1.037-1.039v0a1.038,1.038,0,0,0-1.035-1.04Z" transform="translate(-260.35 -124.593)" fill="#0b77e3"/>
    </g>
  </g>
</svg>
