<svg xmlns="http://www.w3.org/2000/svg" width="21.469" height="22.521" viewBox="0 0 21.469 22.521"><g transform="translate(-877 -266.739)"><g transform="translate(-1271.497 956.189)"><path d="M2169.87-667.04a.352.352,0,0,1-.257.111h-7.021a.343.343,0,0,1-.245-.111.362.362,0,0,1-.1-.245v-2.208a3.9,3.9,0,0,1,1.09-2.733,3.612,3.612,0,0,1,2.757-1.238,3.665,3.665,0,0,1,2.782,1.238,3.892,3.892,0,0,1,1.09,2.733v2.208a.362.362,0,0,1-.1.245Zm-6.237-8.238a3.351,3.351,0,0,1-1.042-2.475,3.558,3.558,0,0,1,3.5-3.5,3.366,3.366,0,0,1,2.488,1.042,3.314,3.314,0,0,1,1.042,2.463,3.352,3.352,0,0,1-1.042,2.475,3.411,3.411,0,0,1-2.488,1.017,3.353,3.353,0,0,1-2.459-1.021Z" fill="#0b77e3" fill-rule="evenodd"/><path d="M2161.247-669.486a4.841,4.841,0,0,1,1.337-3.4,4.6,4.6,0,0,1,1.222-.991,4.4,4.4,0,0,1-.893-.707l-.016-.017c-.057-.056-.113-.114-.168-.173l-.439-.571a4.369,4.369,0,0,1-.7-2.426,4.539,4.539,0,0,1,4.484-4.484h.068c.12,0,.236.027.354.037v-4.233a3,3,0,0,0-3-3h-12a3,3,0,0,0-3,3v14a3,3,0,0,0,3,3h9.75Zm-7.42-15.048h6.574a.5.5,0,0,1,.5.5.5.5,0,0,1-.5.5h-6.574a.5.5,0,0,1-.5-.5A.5.5,0,0,1,2153.827-684.534Zm3.819,9.486h-4.159a.5.5,0,0,1-.5-.5.5.5,0,0,1,.5-.5h4.159a.5.5,0,0,1,.5.5A.5.5,0,0,1,2157.646-675.048Zm2.755-4.243h-6.574a.5.5,0,0,1-.5-.5.5.5,0,0,1,.5-.5h6.574a.5.5,0,0,1,.5.5A.5.5,0,0,1,2160.4-679.291Z" fill="#0b77e3"/><path d="M2166.042-674.256h.108a3.349,3.349,0,0,0,.347-.034v-6.927a3.224,3.224,0,0,0-.354-.037h-.052a3.558,3.558,0,0,0-3.5,3.5,3.351,3.351,0,0,0,1.042,2.475h0A3.354,3.354,0,0,0,2166.042-674.256Z" fill="#0b77e3"/><path d="M2162.247-669.493v.043h1.25a3,3,0,0,0,3-3v-.975c-.122-.012-.243-.039-.367-.039h-.07a3.615,3.615,0,0,0-2.723,1.238A3.9,3.9,0,0,0,2162.247-669.493Z" fill="#0b77e3"/></g></g></svg>