<svg xmlns="http://www.w3.org/2000/svg" width="18.538" height="25.879" viewBox="0 0 18.538 25.879"><line x2="6.017" transform="translate(5.979 13.418)" fill="none" stroke="#f7f7ff" strokeLinecap="round" strokeWidth="1"/><line x2="6.017" transform="translate(5.979 9.534)" fill="none" stroke="#f7f7ff" strokeLinecap="round" strokeWidth="1"/><line x2="3.806" transform="translate(5.667 17.302)" fill="none" stroke="#f7f7ff" strokeLinecap="round" strokeWidth="1"/><path d="M272.062,200.387a2.345,2.345,0,0,1,1.767.7,4.145,4.145,0,0,1,.825,3.109,30.642,30.642,0,0,1-.349,3.389h1.511a2.061,2.061,0,0,0,2.059-2.059V190.966a2.061,2.061,0,0,0-2.059-2.059h-8.75a2.061,2.061,0,0,0-2.059,2.059v14.557a2.061,2.061,0,0,0,2.059,2.059h1.012a18.947,18.947,0,0,0,.547-2.711c.309-2.639,1.723-4.483,3.437-4.483Zm-3.451-4.129a.515.515,0,0,1-1.029,0v-4.117a.515.515,0,0,1,1.029,0Zm14.935,12.725h0a14.118,14.118,0,0,1-1.408,4.67l-.333.812a.515.515,0,0,1-.477.321H269.151a1.028,1.028,0,0,1-1.029-1.045,19.577,19.577,0,0,1,.816-5.354l.112-.422c.033-.126.066-.254.1-.384h-.006a18.915,18.915,0,0,0,.505-2.592c.239-2.037,1.277-3.573,2.414-3.573a1.341,1.341,0,0,1,1.024.379,3.284,3.284,0,0,1,.539,2.353,31.444,31.444,0,0,1-.6,4.706.515.515,0,1,0,1.005.22c.005-.024.041-.19.093-.464h1.689a3.091,3.091,0,0,0,3.088-3.088v-5.542c.925.746,4.614,4.029,4.642,9Z" transform="translate(-265.008 -188.907)" fill="#0b77e3"/></svg>