<svg xmlns="http://www.w3.org/2000/svg" width="23.344" height="16.669" viewBox="0 0 23.344 16.669"><path d="M171.242,228.009a2.513,2.513,0,0,0-2.5,2.5v10a2.513,2.513,0,0,0,2.5,2.5h.12a3.264,3.264,0,0,1-.12-.833,3.334,3.334,0,1,1,6.668,0,3.258,3.258,0,0,1-.121.834h6.075a3.267,3.267,0,0,1-.121-.834,3.334,3.334,0,0,1,6.668,0,3.272,3.272,0,0,1-.111.8,2.1,2.1,0,0,0,1.777-2.053v-3.213a.833.833,0,0,0-.062-.446c-.005-.013-.011-.025-.016-.037s-.015-.028-.023-.044a.83.83,0,0,0-.295-.312l-2.271-1.893-1.589-3.177a.833.833,0,0,0-.745-.461h-2.5v-.834a2.513,2.513,0,0,0-2.5-2.5Zm13.335,5h1.986l1.25,2.5h-3.236Zm-10,6.667a2.5,2.5,0,1,0,2.5,2.5A2.513,2.513,0,0,0,174.576,239.677Zm12.5,0a2.5,2.5,0,1,0,2.5,2.5A2.513,2.513,0,0,0,187.078,239.677Zm-12.5,1.667a.834.834,0,1,1-.834.834A.821.821,0,0,1,174.576,241.344Zm12.5,0a.834.834,0,1,1-.834.834A.821.821,0,0,1,187.078,241.344Z" transform="translate(-168.742 -228.009)" fill="#0b77e3"/></svg>