<svg xmlns="http://www.w3.org/2000/svg" width="20.442" height="20.442" viewBox="0 0 20.442 20.442"><path d="M183.414,172.461V168.81a.731.731,0,0,1,.516.214l5.111,5.111h0a.729.729,0,0,1,.214.516H185.6a2.19,2.19,0,0,1-2.19-2.19Zm-9.491,13.488v-8.378h-1.46a3.655,3.655,0,0,0-3.651,3.65v4.727a2.555,2.555,0,1,0,5.111,0Zm11.681-9.838h3.65V185.6a3.655,3.655,0,0,1-3.65,3.65H171.367a3.289,3.289,0,0,0,3.285-3.285V172.461a3.655,3.655,0,0,1,3.651-3.651h3.65v3.651a3.655,3.655,0,0,0,3.65,3.65Zm-8.031,4.38h4.38v-1.46h-4.38Zm8.761,1.46h-8.761v1.46h8.761Z" transform="translate(-168.812 -168.81)" fill="#0b77e3"/></svg>