<svg xmlns="http://www.w3.org/2000/svg" width="150.756" height="109.367" viewBox="0 0 150.756 109.367">
                    <g id="Group_10099" data-name="Group 10099" transform="translate(-5878 14356.447)">
                    <g id="Group_10092" data-name="Group 10092" transform="translate(5878 -14356.447)">
                    <path id="Path_64500" data-name="Path 64500" d="M497.538,74.346H459.193q-11.376-19.173,0-38.346h38.345Q481.632,55.173,497.538,74.346Z" transform="translate(-405.956 -36)" fill="#e6e6e6"/>
                    <rect id="Rectangle_7868" data-name="Rectangle 7868" width="21.607" height="2.739" transform="translate(58.714 4.565)" fill="#0b77e3"/>
                    <rect id="Rectangle_7869" data-name="Rectangle 7869" width="28.607" height="0.913" transform="translate(51.715 13.543)" fill="#fff"/>
                    <rect id="Rectangle_7870" data-name="Rectangle 7870" width="28.607" height="0.913" transform="translate(51.715 18.26)" fill="#fff"/>
                    <rect id="Rectangle_7871" data-name="Rectangle 7871" width="28.607" height="0.913" transform="translate(51.715 22.977)" fill="#fff"/>
                    <path id="Path_64507" data-name="Path 64507" d="M546.161,139.492a.529.529,0,0,0,.62-.256c.5-.785-.419-1.8-.221-2.707.159-.728.987-1.16,1.156-1.886.164-.705-.342-1.5,0-2.138a1.42,1.42,0,0,1,1.5-.544c.56.088,1.093.334,1.659.369a8.138,8.138,0,0,0,2.212-.451,1.978,1.978,0,0,1,2.072.519c.557.795-.008,1.9.186,2.852.154.755.786,1.381.8,2.151,0,.274-.715.053-.677.325s-.3.032-.03,0a.539.539,0,0,0,.409-.487c.032-.226.457-.3.452-.529-.012-.535.955-.174,1.115-.685a5.179,5.179,0,0,0-.212-3.613,7.241,7.241,0,0,1-.617-1.469,16.583,16.583,0,0,0-.153-2.155,2.624,2.624,0,0,0-2.33-1.488c-.97-.1-1.956.075-2.92-.065a12.722,12.722,0,0,0-2.572-.446,4.273,4.273,0,0,0-2.68,1.5,22.511,22.511,0,0,1-2.163,2.274,4.245,4.245,0,0,0-.693.6,2.329,2.329,0,0,0-.345,1.889c.117.651.37,1.271.478,1.923.1.613.07,1.239.113,1.859a3.267,3.267,0,0,0,.545,1.754,1.656,1.656,0,0,0,1.289.673c.174,0,.322-.153.5-.112C545.87,139.193,545.965,139.4,546.161,139.492Z" transform="translate(-478.184 -109.537)" fill="#2f2e41"/>
                    <path id="Path_64508" data-name="Path 64508" d="M318.546,392.737l.647,3.973,1.293-1.755-.739-2.679Z" transform="translate(-258.032 -317.755)" fill="#a0616a"/>
                    <path id="Path_64509" data-name="Path 64509" d="M517.467,272.651l-1.018,2.684S515.434,289,515.434,290.02s.739,14.043,1.016,14.6c0,0,1.2-1.755,2.772-1.478s.924-4.619.924-4.619l1.478-12.1-.277-6.1Z" transform="translate(-456.121 -227.694)" fill="#575a89"/>
                    <path id="Path_64510" data-name="Path 64510" d="M517.467,272.651l-1.018,2.684S515.434,289,515.434,290.02s.739,14.043,1.016,14.6c0,0,1.2-1.755,2.772-1.478s.924-4.619.924-4.619l1.478-12.1-.277-6.1Z" transform="translate(-456.121 -227.694)" opacity="0.1"/>
                    <path id="Path_64511" data-name="Path 64511" d="M559.2,186.784s3.049,7.761,1.293,9.239,9.793-2.494,9.793-2.494l-.277-1.016s-3.788-1.478-1.94-5.728S559.2,186.784,559.2,186.784Z" transform="translate(-491.575 -156.61)" fill="#a0616a"/>
                    <path id="Path_64512" data-name="Path 64512" d="M559.2,186.784s3.049,7.761,1.293,9.239,9.793-2.494,9.793-2.494l-.277-1.016s-3.788-1.478-1.94-5.728S559.2,186.784,559.2,186.784Z" transform="translate(-491.575 -156.61)" opacity="0.1"/>
                    <path id="Path_64515" data-name="Path 64515" d="M524.58,406.113s-3.9,3.384-3.8,3.846.99,12.428.99,12.428,6.576,2.631,28.1-.837c0,0-4.795-10.605-3.823-12.715a4.9,4.9,0,0,0-.506-4.327l-6.467-2.494-7.76.924Z" transform="translate(-460.448 -332.482)" fill="#2f2e41"/>
                    <circle id="Ellipse_671" data-name="Ellipse 671" cx="6.467" cy="6.467" r="6.467" transform="translate(65.503 20.382)" fill="#a0616a"/>
                    <path id="Path_64516" data-name="Path 64516" d="M548.092,227.13a5.8,5.8,0,0,0-4.065-3.7,35.832,35.832,0,0,1-5.451-1.848s-6.56,3.141-7.853,3.141-1.293-.831-1.293-.831-3.326,3.511-5.081,3.88-4.342,4.712-3.418,7.114a13.405,13.405,0,0,0,2.679,4.157s-.37,12.934.831,15.336c0,0-2.956,5.636-.185,6.005s13.4-.924,15.244.37,5.266-.277,5.728,1.478a2.9,2.9,0,0,0,1.478,2.125s1.571-2.494.647-3.973S548.092,227.13,548.092,227.13Z" transform="translate(-460.416 -186.331)" fill="#575a89"/>
                    <path id="Path_64517" data-name="Path 64517" d="M622.445,433.625l-1.478.924s1.571,5.451,2.217,5.636,2.169-4.661,2.169-4.661Z" transform="translate(-541.606 -358.088)" fill="#a0616a"/>
                    <path id="Path_64518" data-name="Path 64518" d="M540.325,136.087a.529.529,0,0,0,.62-.256c.5-.785-.419-1.8-.221-2.707.159-.728.987-1.16,1.156-1.886.164-.705-.342-1.5,0-2.138a1.42,1.42,0,0,1,1.5-.544c.561.088,1.093.334,1.659.369a8.139,8.139,0,0,0,2.212-.451,1.978,1.978,0,0,1,2.072.519c.557.795-.008,1.9.186,2.852.154.755,1.91,1.285,2.069.775a5.178,5.178,0,0,0-.212-3.613,7.238,7.238,0,0,1-.617-1.469,16.6,16.6,0,0,0-.153-2.155,2.624,2.624,0,0,0-2.33-1.488c-.97-.1-1.956.075-2.92-.065a12.722,12.722,0,0,0-2.572-.446,4.273,4.273,0,0,0-2.68,1.5,22.523,22.523,0,0,1-2.163,2.274,4.238,4.238,0,0,0-.693.6,2.329,2.329,0,0,0-.345,1.889c.117.651.37,1.271.478,1.923.1.613.07,1.239.113,1.859a3.267,3.267,0,0,0,.545,1.754,1.656,1.656,0,0,0,1.289.673c.174,0,.322-.153.5-.112C540.034,135.788,540.13,136,540.325,136.087Z" transform="translate(-473.457 -106.779)" fill="#2f2e41"/>
                    <path id="Path_64519" data-name="Path 64519" d="M625.067,252.383l3-1.617s7.3,17.369,5.543,22.173-8.5,14.69-8.5,14.69-5.358-1.109-4.8-2.217,4.157-8.222,4.435-9.146,2.125-6.929,1.293-7.576-2.448-15.66-2.448-15.66Z" transform="translate(-541.04 -209.967)" opacity="0.1"/>
                    <path id="Path_64520" data-name="Path 64520" d="M627.778,245.416l3.7,1.016s7.3,17.369,5.543,22.173-8.5,14.69-8.5,14.69-5.358-1.109-4.8-2.217,4.157-8.222,4.435-9.146,2.125-6.929,1.293-7.576-4.8-16.63-4.8-16.63Z" transform="translate(-543.798 -205.633)" fill="#575a89"/>
                    <g id="Group_10102" data-name="Group 10102">
                    <path id="Path_64525" data-name="Path 64525" d="M520.568,448.2h38.346q11.376-19.173,0-38.346H520.568Q536.475,429.029,520.568,448.2Z" transform="translate(-460.279 -338.835)" fill="#f2f2f2"/>
                    <rect id="Rectangle_7872" data-name="Rectangle 7872" width="21.607" height="2.739" transform="translate(72.976 78.325)" fill="#0b77e3"/>
                    <rect id="Rectangle_7873" data-name="Rectangle 7873" width="28.607" height="0.913" transform="translate(71.302 86.542)" fill="#fff"/>
                    <rect id="Rectangle_7874" data-name="Rectangle 7874" width="28.607" height="0.913" transform="translate(71.302 91.259)" fill="#fff"/>
                        </g>
                        <path id="Path_64526" data-name="Path 64526" d="M247.243,311.195H208.9q-11.376-19.173,0-38.346h38.346Q231.337,292.022,247.243,311.195Z" transform="translate(-203.21 -227.855)" fill="#f2f2f2"/>
                        <rect id="Rectangle_7875" data-name="Rectangle 7875" width="21.607" height="2.739" transform="translate(9.949 49.559)" fill="#0b77e3"/>
                        <rect id="Rectangle_7876" data-name="Rectangle 7876" width="28.607" height="0.913" transform="translate(5.232 57.167)" fill="#fff"/>
                        <rect id="Rectangle_7877" data-name="Rectangle 7877" width="28.607" height="0.913" transform="translate(5.232 61.884)" fill="#fff"/>
                        <rect id="Rectangle_7878" data-name="Rectangle 7878" width="28.607" height="0.913" transform="translate(5.232 66.602)" fill="#fff"/>
                        <rect id="Rectangle_7879" data-name="Rectangle 7879" width="28.607" height="0.913" transform="translate(5.232 71.319)" fill="#fff"/>
                        <path id="Path_64527" data-name="Path 64527" d="M765,218.215h38.346q11.376-19.173,0-38.346H765Q780.9,199.042,765,218.215Z" transform="translate(-658.274 -152.538)" fill="#f2f2f2"/>
                        <rect id="Rectangle_7880" data-name="Rectangle 7880" width="21.607" height="2.739" transform="translate(118.954 31.135)" fill="#0b77e3"/>
                        <rect id="Rectangle_7881" data-name="Rectangle 7881" width="28.607" height="0.913" transform="translate(116.671 38.743)" fill="#fff"/>
                        </g>
                        <g id="Group_10099-2" data-name="Group 10099">
                        <g id="Ellipse_673" data-name="Ellipse 673" transform="translate(5902.942 -14343.194) rotate(45)" fill="none" stroke="#dbe8f3" stroke-linecap="round" stroke-width="2">
                            <circle cx="7.713" cy="7.713" r="7.713" stroke="none"/>
                            <circle cx="7.713" cy="7.713" r="6.713" fill="none"/>
                        </g>
                        <line id="Line_907" data-name="Line 907" x1="3.017" y1="2.984" transform="translate(5909.423 -14326.319)" fill="none" stroke="#dbe8f3" stroke-linecap="round" stroke-width="2"/>
                        </g>
                    </g>
            </svg> 