<svg xmlns="http://www.w3.org/2000/svg" width="20.43" height="21.28" viewBox="0 0 20.43 21.28">
  <g id="_8-2" data-name=" 8-2" transform="translate(-260.133 -515.329)">
    <g id="system-administration">
      <path id="Path_65466" data-name="Path 65466" d="M262.675,527.649l-.964.558a.965.965,0,0,0-.353,1.317h0l1.434,2.485h0a.964.964,0,0,0,1.317.354h0l.976-.561a1.918,1.918,0,0,1,1.914,0l.019.011a1.917,1.917,0,0,1,.964,1.662v1.171a.964.964,0,0,0,.964.964h2.892a.963.963,0,0,0,.964-.964h0v-1.174a1.916,1.916,0,0,1,.959-1.659l.02-.012a1.918,1.918,0,0,1,1.914,0l.972.561a.963.963,0,0,0,1.317-.352h0c1.764-1.917,1.6-2.97,1.529-3.217a.968.968,0,0,0-.451-.584l-.964-.558a1.922,1.922,0,0,1-.964-1.67v-.02a1.926,1.926,0,0,1,.257-.965c.169-.293.413-.536,1.671-1.263a.963.963,0,0,0,.354-1.316h0l-1.436-2.485a.963.963,0,0,0-1.316-.353h0l-.974.561a1.915,1.915,0,0,1-1.915,0l-.013-.01a1.919,1.919,0,0,1-.964-1.662v-1.172a.964.964,0,0,0-.964-.964H268.94a.965.965,0,0,0-.964.964h0v1.247a1.788,1.788,0,0,1-.9,1.548l-.148.085a1.786,1.786,0,0,1-1.786,0l-1.035-.6a.963.963,0,0,0-1.316.353h0l-1.434,2.485a.964.964,0,0,0-.1.731,1.776,1.776,0,0,0,.448.586,8.953,8.953,0,0,1,1.671,1.264,2.05,2.05,0,0,1,0,1.95,1.915,1.915,0,0,1-.707.7Zm7.712-4.572a2.89,2.89,0,1,1-2.045.847,2.892,2.892,0,0,1,2.045-.847Z" fill="none" stroke="#0b77e3" stroke-miterlimit="10" stroke-width="2"/>
    </g>
  </g>
</svg>