<svg xmlns="http://www.w3.org/2000/svg" width="25.999" height="15.889" viewBox="0 0 25.999 15.889"><path d="M178.759,251.074a3.563,3.563,0,0,1-1.083,2.615,3.766,3.766,0,0,1-5.286,0,3.68,3.68,0,0,1,0-5.243,3.766,3.766,0,0,1,5.286,0A3.582,3.582,0,0,1,178.759,251.074Zm-12.176,5.142a3.451,3.451,0,0,1,2.629,1.17,3.786,3.786,0,0,1,1.04,2.629V261.3a.288.288,0,0,1-.1.231.275.275,0,0,1-.231.116h-6.7a.263.263,0,0,1-.217-.116.29.29,0,0,1-.1-.231v-1.285a3.786,3.786,0,0,1,1.04-2.629,3.464,3.464,0,0,1,2.643-1.17ZM164.2,249.76a3.344,3.344,0,1,1,0,4.723,3.33,3.33,0,0,1,0-4.723Zm13.765,7.164a4.129,4.129,0,0,1,1.155,2.9v1.43a.328.328,0,0,1-.116.26.314.314,0,0,1-.26.13h-7.439a.342.342,0,0,1-.26-.13.329.329,0,0,1-.115-.26v-1.43a4.127,4.127,0,0,1,1.155-2.9,3.88,3.88,0,0,1,2.946-1.3,3.837,3.837,0,0,1,2.932,1.3Zm10.819,4.593a.414.414,0,0,1-.3.13H180.2a.4.4,0,0,1-.289-.13.422.422,0,0,1-.116-.289v-1.6a4.59,4.59,0,0,1,1.285-3.221,4.26,4.26,0,0,1,3.25-1.459,4.319,4.319,0,0,1,3.279,1.459,4.59,4.59,0,0,1,1.285,3.221v1.6a.424.424,0,0,1-.116.289Zm-7.352-8.71a3.953,3.953,0,0,1-1.228-2.918,4.194,4.194,0,0,1,4.131-4.131,3.97,3.97,0,0,1,2.932,1.228,3.906,3.906,0,0,1,1.228,2.9,3.954,3.954,0,0,1-1.228,2.918,4.017,4.017,0,0,1-2.932,1.2A3.953,3.953,0,0,1,181.431,252.807Z" transform="translate(-162.901 -245.759)" fill="#0b77e3" fill-rule="evenodd"/></svg>