<svg xmlns="http://www.w3.org/2000/svg" width="17.147" height="15.704" viewBox="0 0 17.147 15.704">
  <path id="Path_63872" data-name="Path 63872" d="M195.536,197.93H185.289a3.454,3.454,0,0,0-3.45,3.45v6.273a3.454,3.454,0,0,0,3.45,3.45h2.969l1.526,2.2a.749.749,0,0,0,1.234.021l1.548-2.217h2.969a3.454,3.454,0,0,0,3.45-3.45V201.38a3.454,3.454,0,0,0-3.45-3.45Zm-9.368,8.156a1.568,1.568,0,1,1,1.568-1.568A1.566,1.566,0,0,1,186.168,206.086Zm4.182,0a1.568,1.568,0,1,1,1.568-1.568A1.566,1.566,0,0,1,190.35,206.086Zm4.182-.021a1.568,1.568,0,1,1,0-3.137A1.594,1.594,0,0,1,196.1,204.5,1.553,1.553,0,0,1,194.532,206.065Z" transform="translate(-181.839 -197.93)" fill="#fff"/>
</svg>
