<svg id="icon-sales" xmlns="http://www.w3.org/2000/svg" width="13.59" height="13.583" viewBox="0 0 13.59 13.583">
  <path id="Path_2011" data-name="Path 2011" d="M49.251,1103.625a13.644,13.644,0,0,1-1.646-.012,1.942,1.942,0,0,1-1.665-1.915,1.989,1.989,0,0,1,1.576-1.968c.07-.014.14-.024.224-.039a3.377,3.377,0,0,1,.593-2.9,3.3,3.3,0,0,1,1.833-1.232,3.413,3.413,0,0,1,4.012,1.98,2.523,2.523,0,0,1,2.641-.057,2.5,2.5,0,0,1,1.3,2.265,4.483,4.483,0,0,1,.6.336,1.882,1.882,0,0,1,.747,2.044,1.912,1.912,0,0,1-1.586,1.5,1.792,1.792,0,0,1-.356.03c-.434,0-.868,0-1.3,0a3.536,3.536,0,0,0-1.795-4.378,3.38,3.38,0,0,0-3.86.291A3.492,3.492,0,0,0,49.251,1103.625Z" transform="translate(-45.939 -1095.445)" fill="#0b77e3"/>
  <path id="Path_2012" data-name="Path 2012" d="M55.97,1109.679c-.445,0-.89,0-1.335,0a.212.212,0,0,1-.164-.088,12.368,12.368,0,0,0-.858-1.435,4.246,4.246,0,0,1-.749-2.282,3.112,3.112,0,0,1,6.168-.444,2.792,2.792,0,0,1-.15,1.554,6.121,6.121,0,0,1-.728,1.448,11.687,11.687,0,0,0-.668,1.151.172.172,0,0,1-.181.1C56.861,1109.677,56.416,1109.679,55.97,1109.679Z" transform="translate(-49.177 -1098.927)" fill="#0b77e3"/>
  <path id="Path_2013" data-name="Path 2013" d="M58.87,1118.847c0,.295.007.578,0,.862a.251.251,0,0,1-.233.25,1.125,1.125,0,0,1-.17.012H56.448c-.327,0-.409-.084-.409-.417q0-.326,0-.652a.289.289,0,0,1,.013-.056Z" transform="translate(-50.662 -1106.389)" fill="#0b77e3"/>
  <path id="Path_2014" data-name="Path 2014" d="M58.874,1116.721v.547H56.057v-.547Z" transform="translate(-50.671 -1105.395)" fill="#0b77e3"/>
</svg>
