<svg id="icon-account" xmlns="http://www.w3.org/2000/svg" width="11.192" height="11.194" viewBox="0 0 11.192 11.194">
  <path id="Path_2024" data-name="Path 2024" d="M51.135,913.9q0,.93,0,1.86a.475.475,0,0,1-.526.534q-1.869,0-3.738,0a.485.485,0,0,1-.531-.55q0-1.812,0-3.624c0-.451.17-.62.628-.62h3.171c.162,0,.324-.005.485,0a.482.482,0,0,1,.51.537Q51.136,912.97,51.135,913.9Z" transform="translate(-46.34 -911.5)" fill="#0b77e3"/>
  <path id="Path_2025" data-name="Path 2025" d="M51.135,928.037q0,.922,0,1.845a.488.488,0,0,1-.549.547c-.7,0-1.391,0-2.087,0-.523,0-1.046,0-1.569,0-.411,0-.589-.182-.589-.594v-3.624c0-.4.177-.576.57-.576q1.828,0,3.657,0c.4,0,.568.174.568.573Z" transform="translate(-46.34 -919.236)" fill="#0b77e3"/>
  <path id="Path_2026" data-name="Path 2026" d="M60.471,913.891q0-.923,0-1.845a.479.479,0,0,1,.52-.542q1.877-.008,3.754,0a.486.486,0,0,1,.521.547q0,1.852,0,3.7a.482.482,0,0,1-.525.539q-1.877,0-3.754,0a.472.472,0,0,1-.516-.527Q60.47,914.829,60.471,913.891Zm3.819,1.442v-2.857H61.436v2.857Z" transform="translate(-54.074 -911.5)" fill="#0b77e3"/>
  <path id="Path_2027" data-name="Path 2027" d="M60.471,928.035c0-.626,0-1.251,0-1.877a.472.472,0,0,1,.52-.524q1.877,0,3.754,0a.478.478,0,0,1,.521.527q0,1.868,0,3.737a.465.465,0,0,1-.476.521q-1.926.016-3.851,0c-.307,0-.467-.21-.468-.525C60.47,929.275,60.471,928.655,60.471,928.035Zm.964,1.418h2.856V926.6H61.435Z" transform="translate(-54.074 -919.235)" fill="#0b77e3"/>
</svg>
