<svg xmlns="http://www.w3.org/2000/svg" width="21" height="23" viewBox="0 0 21 23"><rect width="21" height="23" rx="3" fill="#0b77e3"/><g transform="translate(4.671 4.674)"><path d="M174.655,143.184h2.8a3.057,3.057,0,1,1,0,6.114H173.79a.611.611,0,1,1,0-1.223h3.666a1.834,1.834,0,1,0,0-3.668h-2.8l.485.485a.611.611,0,1,1-.864.865l-1.529-1.528a.612.612,0,0,1,0-.865c1.767-1.767,2.632-.9,2.393-.664Zm-3.31,10.087a.611.611,0,1,1,0-1.223h9.782a.611.611,0,0,1,0,1.223Zm0,3.363a.611.611,0,1,1,0-1.223h9.782a.611.611,0,0,1,0,1.223Z" transform="translate(-170.733 -142.277)" fill="#fff"/></g></svg>