<svg id="Group_9840" data-name="Group 9840" xmlns="http://www.w3.org/2000/svg" width="11.776" height="11.807" viewBox="0 0 11.776 11.807">
  <path id="Path_64188" data-name="Path 64188" d="M179.74,172.968l-3.277,2.941-1.765,1.6a3.067,3.067,0,0,1-4.034,0,2.389,2.389,0,0,1,0-3.656l1.765-1.6.336-.294,3.613-3.236a2.045,2.045,0,0,1,2.689,0,1.592,1.592,0,0,1,0,2.437l-3.908,3.488-1.177,1.051a1.022,1.022,0,0,1-1.345,0,.8.8,0,0,1,0-1.219l4.034-3.656h.042a.406.406,0,0,0,0-.588.511.511,0,0,0-.672,0l-4.034,3.614a1.592,1.592,0,0,0,0,2.437,2.045,2.045,0,0,0,2.689,0l5.042-4.538-.42-.378.42.378a2.389,2.389,0,0,0,0-3.656,3.067,3.067,0,0,0-4.034,0l-5.757,5.168a3.185,3.185,0,0,0,0,4.874,4.146,4.146,0,0,0,5.42,0l5.042-4.538a.406.406,0,0,0,0-.588.472.472,0,0,0-.672-.042Z" transform="translate(-168.816 -167.337)" fill-rule="evenodd"/>
</svg>
