<svg xmlns="http://www.w3.org/2000/svg" width="18.983" height="20.113" viewBox="0 0 18.983 20.113">
  <g id="Group_10861" data-name="Group 10861" transform="translate(-260.798 -347.757)">
    <path id="Path_65550" data-name="Path 65550" d="M276.426,348.757H264.154a2.36,2.36,0,0,0-2.356,2.361v13.391a2.359,2.359,0,0,0,2.356,2.361h12.271a2.358,2.358,0,0,0,2.356-2.361V351.118a2.359,2.359,0,0,0-2.356-2.361Z" fill="none" stroke="#0b77e3" stroke-miterlimit="10" stroke-width="2"/>
    <path id="Path_65551" data-name="Path 65551" d="M267.307,363.706h-1.791a.473.473,0,1,1,0-.945h1.791a.473.473,0,0,1,0,.945Z" fill="#0b77e3"/>
    <path id="Path_65552" data-name="Path 65552" d="M274.479,357.977h0a.463.463,0,0,1-.283.425.492.492,0,0,1-.189.047.484.484,0,0,1-.321-.123l-3.4-1.747-3.4,1.747a.476.476,0,0,1-.509.076.465.465,0,0,1-.283-.425v-9.22h8.378Z" fill="none" stroke="#0b77e3" stroke-miterlimit="10" stroke-width="1.5"/>
  </g>
</svg>
